<svg width="80" height="80" viewBox="0 0 80 80" fill="none" xmlns="http://www.w3.org/2000/svg">
<path d="M33.8458 65.5678C37.0302 57.1716 33.6478 46.0082 28.5436 41.1357L28.0999 40.7106H25.2881L24.8429 41.4689C23.5499 43.674 23.6635 47.8199 24.5925 50.1572L24.2794 52.7674L20.4636 47.0431C20.4204 37.7719 19.111 33.1602 16.1059 31.6571L15.782 31.4972H12.4638L10.7827 53.1114L18.4909 67.2075V69.8852H35.3827V66.8143H33.8469L33.8458 65.5678ZM21.5617 66.8146V66.4213L13.9145 52.4396L15.2841 34.8345C16.3452 35.9892 17.394 39.2246 17.394 47.5104V47.9757L23.3734 56.9432H26.8731L27.7481 49.6492L27.5425 49.2364C26.9975 48.1459 26.7944 45.711 27.125 44.0863C31.1558 48.6605 33.565 58.0061 30.8853 64.7081L30.7748 64.9831V66.8134L21.5617 66.8146ZM67.5118 31.4978H64.192L63.8681 31.6592C60.863 33.1626 59.5531 37.7722 59.5104 47.0453L55.6946 52.7695L55.3815 50.1593C56.309 47.8221 56.4241 43.6745 55.1311 41.471L54.6869 40.7111H51.8752L51.4299 41.1348C46.3277 46.0072 42.9447 57.1723 46.1297 65.5682V66.8149H44.594V69.8858H61.4857V67.2077L69.194 53.1115L67.5118 31.4978ZM58.4138 66.421V66.8144H49.2006V64.9841L49.0916 64.709C46.4104 58.0079 48.8212 48.6623 52.8519 44.0873C53.182 45.712 52.9794 48.1474 52.4344 49.2373L52.2288 49.6502L53.1038 56.9441H56.6035L62.5829 47.9767V47.5114C62.5829 39.2257 63.6317 35.9903 64.6928 34.8355L66.0624 52.4406L58.4138 66.421ZM52.2715 17.678V15.677L48.4864 10H31.4881L27.7031 15.677V36.104H52.272L52.2715 17.678ZM48.8905 16.1423H41.523V13.0714H46.8437L48.8905 16.1423ZM33.132 13.0714H38.4522V16.1423H31.0847L33.132 13.0714ZM49.2011 33.0324H30.7747V19.2127H38.4522V22.2836H41.5231V19.2127H49.2006L49.2011 33.0324Z" fill="#007BFB"/>
</svg>
