<svg width="80" height="80" viewBox="0 0 80 80" fill="none" xmlns="http://www.w3.org/2000/svg">
<path d="M40.4346 61.602V64.7497C14.6435 68.6874 -1.59534 37.0704 17.0384 18.9171C34.2965 1.53542 65.0076 14.8198 63.8938 38.9376H60.6935C61.9408 17.6381 34.4347 5.76616 19.2794 21.1201C2.65648 37.4225 17.4089 65.4094 40.4343 61.6022L40.4346 61.602ZM34.8547 21.6959V39.338H47.5382V36.1903L38.0556 36.1897V21.6951L34.8547 21.6959ZM50.0361 57.4468L49.908 57.5727L50.0361 57.6987V57.4468ZM64.5988 57.6987L64.7269 57.5727L64.5988 57.4468V57.6987ZM71 42.0857V69H43.6357V42.0857H71ZM67.7997 45.2334H46.8368V65.8515H67.7997V45.2334ZM55.2539 61.7597L57.3024 63.7427C58.7608 62.3578 63.2144 58.0882 64.7275 56.6284L64.5994 56.5025L62.4874 54.3619L58.9028 57.7932V47.3425H55.7025V57.7932L52.1502 54.3619L50.0382 56.5025L49.9101 56.6284L50.0382 56.7544L55.2539 61.7597Z" fill="#007BFB"/>
</svg>
