<svg width="80" height="80" viewBox="0 0 80 80" fill="none" xmlns="http://www.w3.org/2000/svg">
<mask id="path-1-inside-1_502_4522" fill="white">
<path d="M26.1597 15.8436C31.0391 13.0264 36.6573 11.753 42.2745 12.1909C47.8917 12.6288 53.2446 14.7576 57.6285 18.2969C62.0124 21.8362 65.2216 26.6201 66.8338 32.0188C68.4459 37.4175 68.3853 43.1779 66.66 48.5415C64.9347 53.9051 61.6256 58.6205 57.1683 62.0668C52.7109 65.5132 47.3144 67.5289 41.6893 67.8486C36.0641 68.1683 30.4739 66.777 25.6548 63.8579C20.8357 60.9388 17.0136 56.6287 14.6917 51.4952L18.0726 49.966C20.0856 54.4166 23.3993 58.1534 27.5773 60.6841C31.7553 63.2149 36.6018 64.4211 41.4787 64.144C46.3556 63.8668 51.0342 62.1192 54.8986 59.1313C58.7629 56.1434 61.6319 52.0553 63.1276 47.4052C64.6234 42.7551 64.6759 37.7611 63.2783 33.0806C61.8806 28.4001 59.0983 24.2525 55.2976 21.184C51.4969 18.1156 46.8561 16.27 41.9861 15.8903C37.1161 15.5107 32.2453 16.6147 28.015 19.0571L26.1597 15.8436Z"/>
</mask>
<path d="M26.1597 15.8436C31.0391 13.0264 36.6573 11.753 42.2745 12.1909C47.8917 12.6288 53.2446 14.7576 57.6285 18.2969C62.0124 21.8362 65.2216 26.6201 66.8338 32.0188C68.4459 37.4175 68.3853 43.1779 66.66 48.5415C64.9347 53.9051 61.6256 58.6205 57.1683 62.0668C52.7109 65.5132 47.3144 67.5289 41.6893 67.8486C36.0641 68.1683 30.4739 66.777 25.6548 63.8579C20.8357 60.9388 17.0136 56.6287 14.6917 51.4952L18.0726 49.966C20.0856 54.4166 23.3993 58.1534 27.5773 60.6841C31.7553 63.2149 36.6018 64.4211 41.4787 64.144C46.3556 63.8668 51.0342 62.1192 54.8986 59.1313C58.7629 56.1434 61.6319 52.0553 63.1276 47.4052C64.6234 42.7551 64.6759 37.7611 63.2783 33.0806C61.8806 28.4001 59.0983 24.2525 55.2976 21.184C51.4969 18.1156 46.8561 16.27 41.9861 15.8903C37.1161 15.5107 32.2453 16.6147 28.015 19.0571L26.1597 15.8436Z" stroke="#007BFB" stroke-width="7.27657" mask="url(#path-1-inside-1_502_4522)"/>
<path d="M13.7005 57.3542L15.6772 49.9769L23.0545 51.9536" stroke="#007BFB" stroke-width="3.18956"/>
<path d="M30.4044 48.4894L42.532 39.7844L33.2031 27.8724" stroke="#007BFB" stroke-width="3.15318"/>
</svg>
