<svg width="80" height="80" viewBox="0 0 80 80" fill="none" xmlns="http://www.w3.org/2000/svg">
<path d="M61.9995 26.0001H56.9995V23.0001C56.9991 18.8421 55.0098 14.935 51.6473 12.4885C48.2853 10.0421 43.9553 9.35144 39.9993 10.6304C36.0426 9.35144 31.7131 10.042 28.3513 12.4885C24.9895 14.9349 23 18.8421 23 23.0001V26.0001H18C17.7348 26.0001 17.4804 26.1055 17.2929 26.293C17.1054 26.4805 17 26.735 17 27.0001V69.0001C17 69.2653 17.1054 69.5198 17.2929 69.7073C17.4804 69.8948 17.7348 70.0001 18 70.0001H62C62.2652 70.0001 62.5196 69.8948 62.7071 69.7073C62.8946 69.5198 63 69.2653 63 69.0001V27.0001C63 26.735 62.8946 26.4805 62.7071 26.293C62.5196 26.1055 62.2652 26.0001 62 26.0001H61.9995ZM60.9995 65.6973L58.9995 62.6973V30.0001H56.9995V62.6973L54.9995 65.6973V28.0001H60.9995V65.6973ZM47.4955 16.935C49.6621 18.1863 50.9978 20.498 51 23.0001V26.0001H49V23.0001C49.0022 20.8858 48.4857 18.8032 47.4955 16.935ZM58 64.8024L60.1317 67.9998H55.8682L58 64.8024ZM44 12.0001C46.9166 12.0032 49.7125 13.1636 51.7745 15.2256C53.8366 17.2877 54.9968 20.0837 55 23.0001V26.0001H53V23.0001C52.9982 20.8716 52.2429 18.8126 50.8679 17.1881C49.4934 15.5631 47.5875 14.4778 45.4885 14.1239C44.7465 13.331 43.909 12.6328 42.9947 12.0466C43.3278 12.0167 43.6631 12.0002 44.0001 12.0002L44 12.0001ZM25 23.0001C25 19.0702 27.0965 15.439 30.5 13.4738C33.9035 11.5092 38.0965 11.5092 41.5 13.4738C44.9035 15.439 47 19.0703 47 23.0001V30.0001H45V23.0001C45 19.7849 43.2848 16.8135 40.5 15.206C37.7152 13.5984 34.2848 13.5984 31.5 15.206C28.7152 16.8135 27 19.7849 27 23.0001V30.0001H25V23.0001ZM31 26.0001H29V23.0001C29.0018 20.501 30.3353 18.1926 32.4991 16.9421C31.5147 18.8095 31 20.8889 31 23.0001V26.0001ZM33 23.0001C32.9996 20.4537 33.8835 17.9868 35.5005 16.0198C35.6656 16.0082 35.8321 16.0001 36 16.0001C36.6777 16.0001 37.3522 16.0988 38.0014 16.2934C36.096 18.0028 35.0049 20.4403 35 23.0002V26.0002H33L33 23.0001ZM37 23.0001C37.0049 20.7126 38.1228 18.5706 39.9969 17.2582C41.8773 18.5654 42.9992 20.71 43 23.0001V26.0001H37V23.0001ZM19 28.0001H23V31.0001C23 31.2653 23.1054 31.5198 23.2929 31.7073C23.4804 31.8948 23.7348 32.0001 24 32.0001H28C28.2652 32.0001 28.5196 31.8948 28.7071 31.7073C28.8946 31.5198 29 31.2653 29 31.0001V28.0001H43V31.0001C43 31.2653 43.1054 31.5198 43.2929 31.7073C43.4804 31.8948 43.7348 32.0001 44 32.0001H48C48.2652 32.0001 48.5196 31.8948 48.7071 31.7073C48.8946 31.5198 49 31.2653 49 31.0001V28.0001H53V68.0001H19V28.0001Z" fill="#007BFB"/>
<path fill-rule="evenodd" clip-rule="evenodd" d="M40.984 49C40.2455 48.1778 38.8965 47.6288 37.3532 47.6288C36.8365 47.6288 36.3427 47.6912 35.8854 47.8014V47.8038V47.8014C36.0637 46.9696 36.1575 46.1043 36.1575 45.2173C36.1575 42.0268 34.9548 39.131 33.0023 37H33H33.0023C37.6322 38.4838 41 42.9976 41 48.336C41 48.5589 40.9931 48.7819 40.984 49Z" fill="#007BFB"/>
<path fill-rule="evenodd" clip-rule="evenodd" d="M40 56.6949C38.8506 57.5153 37.425 58 35.8776 58C32.0807 58 29 55.0741 29 51.4678C29 48.0327 31.8887 45.2579 35.4375 45C32.8555 45.8493 30.9125 48.1416 30.9125 50.883C30.9125 54.347 33.8691 57.1551 37.5163 57.1551C38.3941 57.1551 39.2345 56.9928 40 56.6949Z" fill="#007BFB"/>
<path fill-rule="evenodd" clip-rule="evenodd" d="M41.7602 52.4967C42.9286 50.8126 43.1941 48.6802 42.8755 46.7231C42.5593 44.7727 41.6202 42.9771 40.2395 41.5024C39.426 40.6331 38.4749 39.8798 37.4393 39.254C36.6017 38.751 35.7085 38.3323 34.7792 38C36.2299 39.7478 37.1424 41.887 37.3766 44.0945C35.0809 43.8761 32.7008 45.0845 31.6314 47.0121C30.4293 49.1809 30.9845 52.0621 32.9494 53.6688C34.3712 54.8317 36.3917 55.239 38.2166 54.8658C39.6915 54.5609 40.9443 53.671 41.7602 52.4967Z" fill="#9ECDFF"/>
</svg>
