<svg width="80" height="80" viewBox="0 0 80 80" fill="none" xmlns="http://www.w3.org/2000/svg">
<path d="M35.1357 60.4069V60.1182C35.1314 59.1916 35.8391 58.4168 36.762 58.3368L37.3007 58.288H37.3039L41.2541 57.9291L41.0363 55.5355L37.0845 55.8949V55.8944C36.5844 55.9395 36.0881 55.7721 35.7173 55.433C35.3471 55.0944 35.1357 54.6153 35.1357 54.113V53.8737C35.1352 53.0099 35.7527 52.2694 36.6027 52.1143L37.6726 51.9206C37.6779 51.9195 37.6833 51.9179 37.6887 51.9169L38.956 51.6861L38.5262 49.321L37.2557 49.5522C37.2514 49.5528 37.2471 49.5533 37.2428 49.5538L37.2321 49.556H37.2315C36.7116 49.6472 36.1777 49.5034 35.7732 49.1637C35.3692 48.8241 35.1358 48.323 35.1358 47.795V47.6523C35.1374 46.8507 35.6713 46.1472 36.4428 45.9305H36.4434C36.4466 45.9294 36.4498 45.9283 36.4536 45.9273L39.0574 45.2174L38.4248 42.8984L37.3941 43.1795L37.3947 43.179C36.4718 43.4306 35.5145 42.9118 35.2217 42.0013C34.9287 41.0907 35.4046 40.1109 36.3012 39.7777L36.3125 39.7734V39.7729L36.313 39.7723L40.3544 38.3028L39.6381 36.333L40.1741 36.2284L39.7132 33.8691L36.8936 34.4197L36.0298 33.1233L39.542 32.7333L39.5415 32.7338C40.4831 32.6292 41.4076 32.4044 42.2918 32.0647L41.4296 29.8208C40.7369 30.087 40.0135 30.263 39.2758 30.3445L34.3748 30.8891L33.0598 29.574H33.0603C32.8972 29.4114 32.8226 29.1802 32.8596 28.9527C32.8966 28.7257 33.0404 28.5299 33.2465 28.4269L35.42 27.3398L42.3476 27.3371L42.3465 24.9333L35.1352 24.936C34.949 24.9366 34.765 24.98 34.5981 25.0632L32.1712 26.2769L29.7905 27.467C29.6237 27.5501 29.4788 27.6714 29.3667 27.8211L27.1545 30.7706L7.56175 37.272C6.49079 37.6256 5.55935 38.3086 4.89934 39.2229C4.23991 40.1372 3.88525 41.236 3.88632 42.3633C3.88579 43.4944 4.34239 44.5777 5.15205 45.3675C5.14132 45.3782 5.12952 45.3884 5.11879 45.3992C4.32414 46.1927 3.87988 47.2718 3.88631 48.3948C3.89275 49.5178 4.34829 50.592 5.15204 51.377C5.14131 51.3877 5.1295 51.3979 5.11877 51.4086C4.32413 52.2022 3.87987 53.2812 3.8863 54.4043C3.89274 55.5273 4.34828 56.6015 5.15203 57.3865C5.1413 57.3972 5.12949 57.4074 5.11876 57.4181C4.32949 58.2069 3.88629 59.2767 3.88629 60.3922C3.88629 61.5077 4.32949 62.5776 5.11822 63.3668C5.9075 64.1556 6.97737 64.5988 8.09285 64.5982H42.3472V62.1944H36.9243C35.9371 62.1934 35.137 61.3934 35.1359 60.4066L35.1357 60.4069ZM30.6356 30.1345C30.7912 30.5627 31.0385 30.9517 31.3605 31.2737L31.7951 31.7083L28.4529 33.0454L30.6356 30.1345ZM33.4745 33.6254L35.3373 36.4198C35.6067 36.8233 36.0917 37.0256 36.5677 36.9327L37.6923 36.7133L35.4908 37.5138C35.4871 37.5149 35.4839 37.5165 35.4806 37.5181L33.7218 38.1571L12.5274 38.1566L25.6156 33.8137C25.6751 33.9581 25.7631 34.089 25.8731 34.199L27.075 35.4009C27.4152 35.7411 27.9249 35.8457 28.3713 35.667L33.4745 33.6254ZM6.28994 42.3631C6.29048 41.3678 7.09746 40.5614 8.09277 40.5603H32.831C32.5471 41.8368 32.8793 43.1718 33.7275 44.166H8.09377C7.09846 44.1649 6.29204 43.3584 6.29094 42.3631H6.28994ZM6.28994 48.3725C6.29048 47.3772 7.09746 46.5708 8.09277 46.5697H32.8763C32.7813 46.9228 32.7325 47.2866 32.732 47.652V47.7947C32.7309 48.6451 32.9895 49.4757 33.4729 50.1754H8.09328C7.09796 50.1743 6.29155 49.3679 6.29045 48.3725H6.28994ZM6.28994 54.382C6.29048 53.3867 7.09746 52.5802 8.09277 52.5791H32.9395C32.8027 52.9971 32.7329 53.4339 32.7318 53.8733V54.1126C32.7324 54.8391 32.9218 55.5532 33.2807 56.1848H8.09337C7.09806 56.1837 6.29164 55.3773 6.29054 54.382L6.28994 54.382ZM6.28994 60.3914C6.29048 59.3961 7.09746 58.5897 8.09277 58.5886H33.015C32.8267 59.0763 32.7307 59.5951 32.7312 60.1178V60.4064C32.7307 61.0246 32.868 61.6357 33.1325 62.1943H8.09215C7.09684 62.1932 6.29042 61.3868 6.28932 60.3915L6.28994 60.3914Z" fill="#007BFB"/>
<path d="M51.9623 29.7417C51.9623 30.4054 51.4242 30.9436 50.7605 30.9436C50.0968 30.9436 49.5586 30.4054 49.5586 29.7417C49.5586 29.078 50.0968 28.5398 50.7605 28.5398C51.4242 28.5398 51.9623 29.078 51.9623 29.7417Z" fill="#007BFB"/>
<path d="M50.7602 34.5493C50.7602 35.213 50.2221 35.7512 49.5583 35.7512C48.8946 35.7512 48.3564 35.213 48.3564 34.5493C48.3564 33.8856 48.8946 33.3474 49.5583 33.3474C50.2221 33.3474 50.7602 33.8856 50.7602 34.5493Z" fill="#007BFB"/>
<path d="M51.9623 51.3757C51.9623 52.0394 51.4242 52.5776 50.7605 52.5776C50.0968 52.5776 49.5586 52.0394 49.5586 51.3757C49.5586 50.712 50.0968 50.1738 50.7605 50.1738C51.4242 50.1738 51.9623 50.712 51.9623 51.3757Z" fill="#007BFB"/>
<path d="M48.3564 47.77C48.3564 48.4337 47.8182 48.9719 47.1545 48.9719C46.4908 48.9719 45.9526 48.4337 45.9526 47.77C45.9526 47.1063 46.4908 46.5681 47.1545 46.5681C47.8182 46.5681 48.3564 47.1063 48.3564 47.77Z" fill="#007BFB"/>
<path d="M55.5678 47.77C55.5678 48.4337 55.0297 48.9719 54.366 48.9719C53.7022 48.9719 53.1641 48.4337 53.1641 47.77C53.1641 47.1063 53.7022 46.5681 54.366 46.5681C55.0297 46.5681 55.5678 47.1063 55.5678 47.77Z" fill="#007BFB"/>
<path d="M49.5586 39.3567C49.5586 40.0204 49.0204 40.5586 48.3567 40.5586C47.693 40.5586 47.1548 40.0204 47.1548 39.3567C47.1548 38.693 47.693 38.1548 48.3567 38.1548C49.0204 38.1548 49.5586 38.693 49.5586 39.3567Z" fill="#007BFB"/>
<path d="M55.5678 39.3569C55.5678 40.0206 55.0297 40.5588 54.366 40.5588C53.7022 40.5588 53.1641 40.0206 53.1641 39.3569C53.1641 38.6932 53.7022 38.155 54.366 38.155C55.0297 38.155 55.5678 38.6932 55.5678 39.3569Z" fill="#007BFB"/>
<path d="M56.7695 34.5493C56.7695 35.213 56.2313 35.7512 55.5676 35.7512C54.9039 35.7512 54.3657 35.213 54.3657 34.5493C54.3657 33.8856 54.9039 33.3474 55.5676 33.3474C56.2313 33.3474 56.7695 33.8856 56.7695 34.5493Z" fill="#007BFB"/>
<path d="M57.9716 29.7417C57.9716 30.4054 57.4335 30.9436 56.7697 30.9436C56.106 30.9436 55.5679 30.4054 55.5679 29.7417C55.5679 29.078 56.106 28.5398 56.7697 28.5398C57.4335 28.5398 57.9716 29.078 57.9716 29.7417Z" fill="#007BFB"/>
<path d="M75.9996 63.3945H70.4506L72.7004 45.3951C73.3024 40.5339 72.2261 35.6126 69.6507 31.4464L67.5774 28.1014C67.4974 26.4596 66.8573 24.895 65.7644 23.6674L57.7542 12.2253L57.7521 12.2269C57.5278 11.9039 57.1592 11.7118 56.7659 11.7129C56.3726 11.7134 56.005 11.9071 55.7813 12.2307L44.9643 27.8552C44.8737 27.9866 44.8098 28.1352 44.7765 28.2914L41.0121 46.1727C40.3022 49.5765 41.407 53.1056 43.9304 55.4981C45.1017 57.8847 45.5486 60.5615 45.2165 63.1992L44.7599 66.851C44.7176 67.1933 44.8238 67.5372 45.0518 67.7953C45.2799 68.0539 45.6082 68.202 45.9527 68.202H68.7885C69.3948 68.202 69.9061 67.7508 69.9812 67.1493L70.1503 65.7983H75.9998L75.9996 63.3945ZM43.3647 46.6684L47.0793 29.0248L56.5527 15.3416L61.5513 26.3383L59.2866 48.5835C59.1498 49.9141 58.6642 51.1848 57.8798 52.268C57.0948 53.3507 56.0383 54.2076 54.8171 54.7528L53.8781 55.1702C52.1654 55.9311 50.2322 56.0319 48.4497 55.4535C46.6672 54.8746 45.1622 53.6572 44.2232 52.0351C43.2848 50.4136 42.9789 48.5018 43.3647 46.668L43.3647 46.6684ZM62.6086 63.7132L61.9132 65.7988H47.3148L47.6024 63.4975H47.6029C47.8519 61.5182 47.7296 59.5094 47.2418 57.5745C49.7078 58.5119 52.4437 58.4368 54.8545 57.3674L55.7935 56.95C57.4021 56.2326 58.7928 55.1042 59.8256 53.6781C60.859 52.2525 61.4981 50.579 61.6783 48.8277L63.9759 26.2584C63.9973 26.0464 63.9619 25.8329 63.8739 25.6392L63.2504 24.2672L63.838 25.1069C63.8675 25.1488 63.8991 25.1885 63.9335 25.2261C64.7388 26.1103 65.1847 27.2639 65.1837 28.4599V47.8466C65.1853 53.2396 64.316 58.5976 62.6087 63.7142L62.6086 63.7132ZM67.7283 65.7988H64.4473L64.8888 64.4736C66.6777 59.1123 67.5887 53.4978 67.5872 47.8464V32.6806L67.6082 32.7139C69.8949 36.4135 70.8501 40.782 70.3156 45.0981L67.7283 65.7988Z" fill="#007BFB"/>
</svg>
