<svg width="80" height="80" viewBox="0 0 80 80" fill="none" xmlns="http://www.w3.org/2000/svg">
<path d="M67.949 31.8695C67.937 27.543 66.212 23.3976 63.1506 20.3403C60.0896 17.283 55.9418 15.5632 51.6156 15.557H41.1667V14.2429C42.2709 13.9575 43.2323 13.2783 43.8698 12.3325C44.5073 11.3872 44.7765 10.2408 44.6265 9.1101C44.4765 7.97989 43.9177 6.94343 43.0563 6.1965C42.1943 5.45014 41.0885 5.04442 39.9484 5.05743C38.8083 5.06993 37.712 5.49962 36.8667 6.26473C36.0219 7.03035 35.486 8.07873 35.3609 9.21259L34.5083 10.0652L36.1583 11.7152L37.325 10.5485C37.5437 10.3298 37.6667 10.0329 37.6667 9.72353C37.6667 9.10478 37.9125 8.51102 38.35 8.07353C38.7875 7.63603 39.3813 7.39019 40 7.39019C40.6187 7.39019 41.2125 7.63603 41.65 8.07353C42.0875 8.51102 42.3333 9.10478 42.3333 9.72353C42.3333 10.3423 42.0875 10.936 41.65 11.3735C41.2125 11.811 40.6187 12.0569 40 12.0569C39.3557 12.0569 38.8333 12.5793 38.8333 13.2235V15.5569H28.3333C24.0031 15.5615 19.8516 17.2839 16.7896 20.3465C13.7271 23.4085 12.0047 27.5601 12 31.8902V73.8902C12 74.5344 12.5224 75.0568 13.1667 75.0568H66.8333C67.1432 75.0568 67.4401 74.9339 67.6589 74.7147C67.8776 74.4954 68.0005 74.1985 68 73.8886L67.949 31.8695ZM14.333 72.7242V31.8908C14.3371 28.1788 15.8136 24.6206 18.4382 21.996C21.0627 19.3715 24.621 17.895 28.333 17.8908H38.833V20.2242H34.1663C33.8569 20.2242 33.56 20.3471 33.3413 20.5658L30.1829 23.7242H25.9996C25.7563 23.7242 25.5193 23.8003 25.3214 23.9414L17.1548 29.7747C16.848 29.994 16.6662 30.3477 16.6662 30.7242V63.3909C16.6662 64.0352 17.1886 64.5576 17.8329 64.5576H22.4996V69.2242C22.4996 69.8685 23.022 70.3909 23.6662 70.3909H56.3329C56.9772 70.3909 57.4996 69.8685 57.4996 69.2242V64.5576H62.1662C62.8105 64.5576 63.3329 64.0352 63.3329 63.3909V30.7242C63.3329 30.3477 63.1511 29.994 62.8443 29.7747L54.6777 23.9414C54.4798 23.8003 54.2428 23.7242 53.9996 23.7242H49.8162L46.6578 20.5658C46.4391 20.3471 46.1422 20.2242 45.8328 20.2242H41.1662V17.8908H51.6151C55.323 17.896 58.8782 19.37 61.502 21.9908C64.126 24.6111 65.6047 28.1643 65.6151 31.8726L65.6646 72.7246L14.333 72.7242ZM60.9996 57.5575H57.4996V59.8908H60.9996V62.2242H55.1663V36.5575C55.1663 35.9132 54.6439 35.3908 53.9996 35.3908C53.3554 35.3908 52.833 35.9132 52.833 36.5575V40.0575H46.9996C46.3554 40.0575 45.833 40.5799 45.833 41.2242V45.8908C45.833 46.2809 46.0277 46.645 46.3527 46.8617L49.8527 49.195C50.2444 49.4559 50.7548 49.4559 51.1465 49.195L52.8329 48.0705V63.3905C52.8329 64.0348 53.3553 64.5572 53.9996 64.5572H55.1662V68.0572H43.4996V31.8905C43.8089 31.891 44.1058 31.7681 44.3246 31.5488L49.8163 26.0571H53.6256L60.9996 31.3243V57.5575ZM52.833 45.2663L50.4996 46.822L48.1663 45.2663V42.3908H52.833V45.2663ZM27.1663 63.3903V36.557C27.1663 35.9127 26.6439 35.3903 25.9996 35.3903C25.3554 35.3903 24.833 35.9127 24.833 36.557V57.557H21.333V59.8903H24.833V62.2236H18.9996V31.3236L26.3736 26.0564H30.183L35.6747 31.5482C35.8934 31.7674 36.1903 31.8903 36.4997 31.8898V68.0565H24.833V64.5565H25.9997C26.644 64.5565 27.1664 64.0341 27.1664 63.3898L27.1663 63.3903ZM34.1663 23.041L38.3496 27.2243L36.4996 29.0743L32.3163 24.891L34.1663 23.041ZM38.833 30.041L39.9996 28.8743L41.1663 30.041V68.057H38.833V30.041ZM43.4996 29.0743L41.6496 27.2243L45.833 23.041L47.683 24.891L43.4996 29.0743ZM39.9996 25.5743L36.983 22.5576H43.0163L39.9996 25.5743Z" fill="#007BFB"/>
</svg>
