<svg width="60" height="60" viewBox="0 0 60 60" fill="none" xmlns="http://www.w3.org/2000/svg">
<path d="M49.01 29.5432C49.1738 28.5839 50.055 27.8876 50.953 27.9537L51.124 27.975C52.1156 28.099 52.8379 29.0021 52.6771 30.0091L52.6771 30.0091L52.6756 30.0196C51.9721 34.9426 49.7557 39.3754 46.2394 42.8916C41.805 47.3259 35.9648 49.5435 30.1772 49.5435C28.6484 49.5435 27.123 49.394 25.5994 49.0652L28.0286 45.7145C33.6102 46.3874 39.3763 44.5838 43.6539 40.3061L43.654 40.3061C46.5899 37.3699 48.4328 33.6274 49.01 29.5432Z" fill="#007BFB" stroke="#DFEEFF" stroke-width="1.3"/>
<path d="M48.2416 12.8808L49.3512 13.9904V12.4212V8.86094C49.3512 7.8292 50.1727 7.00773 51.2044 7.00773H51.2045C52.2363 7.00773 53.0578 7.8292 53.0578 8.86094V18.4292C53.0578 19.4609 52.2363 20.2824 51.2045 20.2824H41.6363C40.6046 20.2824 39.7831 19.4609 39.7831 18.4292C39.7831 17.3974 40.6046 16.5759 41.6363 16.5759H45.1966H46.7658L45.6562 15.4663L43.6553 13.4655C43.655 13.4651 43.6547 13.4648 43.6544 13.4645C36.2785 6.03229 24.2396 6.03519 16.8111 13.4637L16.8076 13.4673C13.2321 17.0993 11.391 21.7952 11.2838 26.5575L7.97139 31.1172C6.63707 23.9809 8.6915 16.3568 14.1701 10.8782C23.0395 2.00884 37.3696 2.00884 46.239 10.8782L48.2416 12.8808Z" fill="#007BFB" stroke="#DFEEFF" stroke-width="1.3"/>
<path d="M30.1214 14.5734H30.14C31.163 14.5833 31.9746 15.401 31.9746 16.4266V24.9936V25.484L32.446 25.6186L38.2872 27.2872L38.2976 27.2902L38.308 27.2928C39.2747 27.5345 39.8554 28.5485 39.5662 29.5398L39.5626 29.5521L39.5595 29.5644C39.3584 30.3696 38.6312 30.9077 37.7983 30.9077C37.6718 30.9077 37.5306 30.876 37.2979 30.8181L29.6307 28.6513L29.6211 28.6486L29.6114 28.6461C28.8062 28.445 28.2682 27.7178 28.2682 26.8849V16.4266C28.2682 15.3949 29.0896 14.5734 30.1214 14.5734Z" fill="#007BFB" stroke="#DFEEFF" stroke-width="1.3"/>
<path opacity="0.4" d="M24.3915 37.4367H24.4066C25.175 37.4469 25.5217 38.2404 25.1022 38.7798L25.0951 38.7891L25.0882 38.7985L13.1304 55.3727C12.5546 56.1468 11.3941 55.6283 11.5175 54.7326L11.5177 54.7315L12.7971 45.3301L12.8975 44.5924H12.153H7.86946C7.19309 44.5924 6.75002 43.7609 7.17214 43.1758C7.17226 43.1756 7.17238 43.1755 7.1725 43.1753L19.1303 26.6569C19.706 25.8821 20.8669 26.4007 20.7434 27.2965L20.7433 27.2976L19.4639 36.6991L19.3635 37.4367H20.108H24.3915ZM20.1964 36.1367L21.3873 27.3853L24.3915 36.7867H23.7415H20.764L20.752 36.8743L20.108 36.7867V36.1367H20.1964ZM12.0646 45.8924L10.8736 54.6439L6.64562 42.7946C5.92232 43.7958 6.64562 45.2424 7.86946 45.2424H11.497L11.5089 45.1548L12.153 45.2424V45.8924H12.0646Z" fill="#007BFB" stroke="#DFEEFF" stroke-width="1.3"/>
</svg>
