<svg width="32" height="33" viewBox="0 0 32 33" fill="none" xmlns="http://www.w3.org/2000/svg">
<path fill-rule="evenodd" clip-rule="evenodd" d="M8.59637 3.16832L8.6343 3.17083C9.32798 3.23055 9.93194 3.57743 10.4812 4.11685L10.651 4.28862C11.7049 5.39607 13.603 7.93991 13.9127 8.84153L13.946 8.95963C14.1348 9.87094 13.9339 10.4628 13.3345 11.5097L13.1896 11.767C12.9146 12.2715 12.8725 12.4796 12.9575 12.7179C14.2649 15.9342 16.496 18.1764 19.6599 19.4752C19.9594 19.5845 20.1856 19.5222 20.818 19.1575L21.1492 18.9691C22.0385 18.4788 22.6023 18.3236 23.4338 18.497C24.142 18.6458 26.4315 20.3294 27.754 21.5119L28.1191 21.8496L28.2503 21.9799C28.7879 22.5332 29.134 23.141 29.1943 23.8855C29.2578 25.6951 27.0611 28.2431 25.7216 29.0088C24.1981 30.1059 22.2644 30.0873 20.0948 29.0723C14.4244 26.7006 5.75053 18.0377 3.43901 12.345L3.30071 12.0267C2.42349 9.91901 2.4428 8.09687 3.44733 6.72477C4.36286 5.19779 6.84058 3.08663 8.59637 3.16832ZM8.55926 5.13186L8.48696 5.11797L8.37225 5.12402C7.47121 5.24457 5.66154 6.81065 5.06105 7.80494L4.95715 7.96041C4.43906 8.80934 4.49892 9.97613 5.22048 11.5721L5.35847 11.8968C7.6871 17.15 15.7497 25.1418 20.8766 27.287L21.1591 27.4133C22.6432 28.0457 23.7655 28.0179 24.6743 27.3692L24.7415 27.3258C25.0228 27.1293 25.6715 26.5369 26.1711 25.9573C26.8729 25.1433 27.2705 24.3975 27.2576 24.0005C27.2436 23.8307 27.1132 23.6017 26.8748 23.3561L26.7668 23.2488C25.8423 22.3593 23.3201 20.4663 23.0382 20.4071C22.7498 20.3469 22.5128 20.4282 21.8657 20.8024L21.5389 20.987C20.5851 21.5039 19.9118 21.6427 18.9622 21.2954C15.28 19.7847 12.6658 17.1575 11.1469 13.4189C10.7871 12.4192 10.9809 11.7122 11.6071 10.6159L11.7558 10.3529C12.0402 9.83701 12.1002 9.61812 12.0459 9.35621C11.9885 9.07723 10.2525 6.74405 9.35643 5.75468L9.12543 5.5115L9.00305 5.39959C8.83502 5.2552 8.6858 5.16758 8.55926 5.13186Z" fill="#007BFB"/>
<path opacity="0.4" fill-rule="evenodd" clip-rule="evenodd" d="M19.3607 3.49599L19.2289 3.49023L19.1005 3.50201C18.6799 3.56933 18.3386 3.91169 18.2893 4.35792C18.2302 4.8934 18.614 5.37568 19.1466 5.43513C23.485 5.91938 26.9111 9.35974 27.3987 13.7211C27.4585 14.2565 27.9388 14.6417 28.4713 14.5815C29.0038 14.5214 29.387 14.0386 29.3272 13.5032C28.7383 8.23592 24.6005 4.08084 19.3607 3.49599ZM19.4393 8.11645L19.3084 8.09987L19.1795 8.10104C18.7548 8.13352 18.3867 8.44665 18.3013 8.88733C18.1988 9.41615 18.5421 9.9284 19.0681 10.0315C20.9701 10.4042 22.4561 11.8982 22.8268 13.8105C22.9293 14.3393 23.4389 14.6844 23.9648 14.5813C24.4908 14.4783 24.8341 13.966 24.7316 13.4372C24.2097 10.745 22.1171 8.64121 19.4393 8.11645Z" fill="#007BFB"/>
</svg>
