<svg width="60" height="60" viewBox="0 0 60 60" fill="none" xmlns="http://www.w3.org/2000/svg">
<path d="M49.0104 29.5434C49.1741 28.5841 50.0553 27.8877 50.9533 27.9538L51.1243 27.9752C52.116 28.0991 52.8382 29.0023 52.6775 30.0092L52.6774 30.0092L52.6759 30.0197C51.9724 34.9427 49.756 39.3755 46.2398 42.8917C41.8053 47.326 35.9652 49.5437 30.1775 49.5437C28.6487 49.5437 27.1233 49.3942 25.5997 49.0653L28.0289 45.7146C33.6105 46.3875 39.3766 44.5839 43.6543 40.3062L43.6543 40.3062C46.5903 37.3701 48.4331 33.6275 49.0104 29.5434Z" fill="#007BFB" stroke="#F6F7FC" stroke-width="1.3"/>
<path d="M48.2421 12.8808L49.3517 13.9904V12.4212V8.86094C49.3517 7.8292 50.1732 7.00773 51.205 7.00773H51.2051C52.2368 7.00773 53.0583 7.8292 53.0583 8.86094V18.4292C53.0583 19.4609 52.2368 20.2824 51.2051 20.2824H41.6368C40.6051 20.2824 39.7836 19.4609 39.7836 18.4292C39.7836 17.3974 40.6051 16.5759 41.6368 16.5759H45.1971H46.7663L45.6567 15.4663L43.6559 13.4655C43.6555 13.4651 43.6552 13.4648 43.6549 13.4645C36.279 6.03229 24.2401 6.03519 16.8117 13.4637L16.8081 13.4673C13.2326 17.0993 11.3915 21.7952 11.2843 26.5575L7.9719 31.1172C6.63758 23.9809 8.69201 16.3568 14.1706 10.8782C23.04 2.00884 37.3701 2.00884 46.2395 10.8782L48.2421 12.8808Z" fill="#007BFB" stroke="#F6F7FC" stroke-width="1.3"/>
<path d="M30.1215 14.5733H30.1401C31.1631 14.5831 31.9747 15.4009 31.9747 16.4264V24.9935V25.4838L32.4462 25.6185L38.2873 27.2871L38.2977 27.2901L38.3082 27.2927C39.2748 27.5344 39.8555 28.5484 39.5663 29.5397L39.5627 29.5519L39.5596 29.5643C39.3585 30.3695 38.6313 30.9076 37.7984 30.9076C37.6719 30.9076 37.5307 30.8759 37.298 30.8179L29.6308 28.6511L29.6212 28.6484L29.6116 28.646C28.8063 28.4449 28.2683 27.7177 28.2683 26.8848V16.4265C28.2683 15.3948 29.0898 14.5733 30.1215 14.5733Z" fill="#007BFB" stroke="#F6F7FC" stroke-width="1.3"/>
<path opacity="0.3" d="M24.3917 37.4368H24.4068C25.1752 37.4471 25.5219 38.2406 25.1024 38.78L25.0953 38.7892L25.0884 38.7987L13.1306 55.3728C12.5548 56.1469 11.3943 55.6285 11.5177 54.7327L11.5179 54.7316L12.7973 45.3302L12.8976 44.5926H12.1532H7.86965C7.19328 44.5926 6.75021 43.761 7.17233 43.1759C7.17245 43.1758 7.17257 43.1756 7.17269 43.1754L19.1305 26.657C19.7062 25.8823 20.8671 26.4008 20.7436 27.2966L20.7435 27.2978L19.4641 36.6992L19.3637 37.4368H20.1082H24.3917ZM20.1966 36.1368L21.3875 27.3854L24.3917 36.7868H23.7417H20.7642L20.7522 36.8745L20.1082 36.7868V36.1368H20.1966ZM12.0647 45.8926L10.8738 54.644L6.64581 42.7948C5.92251 43.7959 6.64581 45.2426 7.86965 45.2426H11.4972L11.5091 45.1549L12.1532 45.2426V45.8926H12.0647Z" fill="#007BFB" stroke="#F6F7FC" stroke-width="1.3"/>
</svg>
