<svg width="171" height="172" viewBox="0 0 171 172" fill="none" xmlns="http://www.w3.org/2000/svg">
<path d="M114 101.257C114 44.0197 62.663 9.90341 36.9945 0C56.1359 21.3429 61.0544 50.1234 61.1209 61.8459C40.7473 62.5196 0 74.6597 0 117.83C0 161.001 36.1907 171.929 54.286 171.996C74.1907 172.266 114 158.495 114 101.257Z" fill="#007BFB"/>
<path d="M171 101.257C171 44.0197 119.663 9.90341 93.9945 0C113.136 21.3429 118.054 50.1234 118.121 61.8459C97.7473 62.5196 57 74.6597 57 117.83C57 161.001 93.1907 171.929 111.286 171.996C131.191 172.266 171 158.495 171 101.257Z" fill="#DFEEFF"/>
</svg>
