<svg width="33" height="34" viewBox="0 0 33 34" fill="none" xmlns="http://www.w3.org/2000/svg">
<path d="M32.1452 14.1086L29.9309 6.35852C29.8829 6.18947 29.7576 6.05331 29.593 5.99152L22.1928 3.21697C22.2007 3.12207 22.1839 3.02668 22.1441 2.94018L21.0369 0.725862C20.9428 0.538783 20.751 0.420652 20.5414 0.420899H12.7913C12.5815 0.420899 12.3897 0.539277 12.2958 0.727095L11.1886 2.94142C11.1488 3.02792 11.132 3.12331 11.1399 3.21821L3.73967 5.99155C3.57508 6.05334 3.44978 6.18951 3.40184 6.35855L1.18752 14.1087C1.17318 14.1581 1.16602 14.209 1.16602 14.2604V30.8678C1.16602 31.0146 1.22434 31.1555 1.32814 31.2593C1.43193 31.3631 1.5728 31.4214 1.7196 31.4214H6.14824C6.29504 31.4214 6.43591 31.3631 6.5397 31.2593C6.6435 31.1555 6.70182 31.0146 6.70182 30.8678V16.5646L7.17953 15.1319L7.80898 17.6502V30.8678C7.80923 31.1061 7.96172 31.3174 8.1876 31.3927L14.8306 33.6071C14.9727 33.6543 15.1279 33.6422 15.2606 33.5732C15.3935 33.5043 15.4929 33.3844 15.5359 33.2411L16.6663 29.4728L17.7967 33.2411C17.8668 33.4753 18.0823 33.6357 18.327 33.6357C18.3866 33.6357 18.4456 33.6261 18.502 33.6071L25.1449 31.3927C25.3708 31.3174 25.5233 31.1061 25.5236 30.8678V17.6502L26.153 15.1319L26.6307 16.5646V30.8678C26.6307 31.0146 26.689 31.1555 26.7928 31.2593C26.8966 31.3631 27.0375 31.4214 27.1843 31.4214H31.6129C31.7597 31.4214 31.9006 31.3631 32.0044 31.2593C32.1082 31.1555 32.1665 31.0146 32.1665 30.8678V14.2604C32.1665 14.209 32.1594 14.1581 32.145 14.1087L32.1452 14.1086ZM21.0426 3.21418L19.1975 7.82598L17.4176 6.40223L20.4623 2.05343L21.0426 3.21418ZM16.6666 5.54466L15.4072 3.74549H17.9259L16.6666 5.54466ZM19.4787 1.528L18.701 2.63839H14.6322L13.8544 1.528H19.4787ZM12.8711 2.05341L15.9158 6.40221L14.136 7.82596L12.2933 3.21416L12.8711 2.05341ZM5.59488 30.3145H2.2734V29.2073H5.59488V30.3145ZM14.6394 32.3771L8.91656 30.469V17.5823C8.91656 17.537 8.91112 17.4921 8.9 17.4483L7.79606 13.0313L7.24248 10.2773L6.15759 10.4943L6.68177 13.1176L5.62104 16.3002C5.603 16.3568 5.59435 16.4159 5.59509 16.4752V28.1004H2.27361V14.3387L4.39006 6.93144L11.5183 4.25895L13.3866 8.93053C13.4516 9.0934 13.59 9.21597 13.7595 9.26071C13.9291 9.30544 14.11 9.26713 14.2469 9.15741L16.113 7.66223V27.4659L14.6394 32.3771ZM24.4331 17.4481C24.422 17.4919 24.4165 17.5369 24.4165 17.5821V30.4688L18.6936 32.3769L17.4105 28.1H17.7736V26.9928H17.22V24.7785H17.7736V23.6713H17.22V21.457H17.7736V20.3499H17.22V18.1355H17.7736V17.0284H17.22V14.8141H17.7736V13.7069H17.22V11.4926H17.7736V10.3854H17.22V7.66173L19.0883 9.1564C19.2252 9.26613 19.4059 9.30443 19.5757 9.2597C19.7452 9.21497 19.8836 9.09239 19.9486 8.92953L21.8147 4.25845L28.9429 6.93094L31.0594 14.3382V28.0999H27.7379V16.4747C27.7379 16.4151 27.7285 16.3561 27.7097 16.2997L26.649 13.1171L27.1731 10.496L26.0883 10.2745L25.5347 13.0286L24.4331 17.4481ZM31.0596 30.3146H27.7381V29.2075H31.0596V30.3146Z" fill="#007BFB" stroke="#007BFB" stroke-width="0.5"/>
</svg>
