<svg width="32" height="32" viewBox="0 0 32 32" fill="none" xmlns="http://www.w3.org/2000/svg">
<path fill-rule="evenodd" clip-rule="evenodd" d="M8.59637 2.6688L8.6343 2.67132C9.32798 2.73104 9.93194 3.07791 10.4812 3.61733L10.651 3.78911C11.7049 4.89656 13.603 7.44039 13.9127 8.34202L13.946 8.46012C14.1348 9.37143 13.9339 9.96325 13.3345 11.0101L13.1896 11.2674C12.9146 11.772 12.8725 11.9801 12.9575 12.2184C14.2649 15.4347 16.496 17.6769 19.6599 18.9757C19.9594 19.085 20.1856 19.0227 20.818 18.658L21.1492 18.4696C22.0385 17.9793 22.6023 17.8241 23.4338 17.9974C24.142 18.1463 26.4315 19.8299 27.754 21.0124L28.1191 21.3501L28.2503 21.4804C28.7879 22.0337 29.134 22.6415 29.1943 23.386C29.2578 25.1956 27.0611 27.7435 25.7216 28.5093C24.1981 29.6064 22.2644 29.5878 20.0948 28.5728C14.4244 26.2011 5.75053 17.5381 3.43901 11.8454L3.30071 11.5272C2.42349 9.4195 2.4428 7.59736 3.44733 6.22525C4.36286 4.69828 6.84058 2.58711 8.59637 2.6688ZM8.55926 4.63235L8.48696 4.61846L8.37225 4.6245C7.47121 4.74506 5.66154 6.31114 5.06105 7.30543L4.95715 7.4609C4.43906 8.30983 4.49892 9.47661 5.22048 11.0726L5.35847 11.3973C7.6871 16.6505 15.7497 24.6423 20.8766 26.7875L21.1591 26.9138C22.6432 27.5462 23.7655 27.5183 24.6743 26.8697L24.7415 26.8263C25.0228 26.6298 25.6715 26.0373 26.1711 25.4578C26.8729 24.6438 27.2705 23.898 27.2576 23.501C27.2436 23.3312 27.1132 23.1022 26.8748 22.8566L26.7668 22.7493C25.8423 21.8598 23.3201 19.9668 23.0382 19.9075C22.7498 19.8474 22.5128 19.9287 21.8657 20.3029L21.5389 20.4874C20.5851 21.0044 19.9118 21.1432 18.9622 20.7959C15.28 19.2852 12.6658 16.658 11.1469 12.9194C10.7871 11.9197 10.9809 11.2127 11.6071 10.1163L11.7558 9.85336C12.0402 9.3375 12.1002 9.11861 12.0459 8.8567C11.9885 8.57771 10.2525 6.24454 9.35643 5.25516L9.12543 5.01199L9.00305 4.90007C8.83502 4.75569 8.6858 4.66807 8.55926 4.63235Z" fill="#007BFB"/>
<path opacity="0.4" fill-rule="evenodd" clip-rule="evenodd" d="M19.3607 2.99697L19.2289 2.99121L19.1005 3.00298C18.6799 3.0703 18.3386 3.41266 18.2893 3.8589C18.2302 4.39438 18.614 4.87666 19.1466 4.93611C23.485 5.42036 26.9111 8.86072 27.3987 13.2221C27.4585 13.7575 27.9388 14.1427 28.4713 14.0825C29.0038 14.0223 29.387 13.5395 29.3272 13.0041C28.7383 7.7369 24.6005 3.58182 19.3607 2.99697ZM19.4393 7.61743L19.3084 7.60084L19.1795 7.60202C18.7548 7.6345 18.3867 7.94762 18.3013 8.38831C18.1988 8.91712 18.5421 9.42937 19.0681 9.53245C20.9701 9.90518 22.4561 11.3992 22.8268 13.3114C22.9293 13.8403 23.4389 14.1854 23.9648 14.0823C24.4908 13.9792 24.8341 13.467 24.7316 12.9382C24.2097 10.246 22.1171 8.14218 19.4393 7.61743Z" fill="#007BFB"/>
</svg>
