<svg width="36" height="36" viewBox="0 0 36 36" fill="none" xmlns="http://www.w3.org/2000/svg">
<path d="M31.1135 8.09375H32.3244C33.9765 8.09375 35.316 9.43298 35.316 11.0854V14.077C35.316 15.7291 33.9768 17.0686 32.3244 17.0686H31.1195L31.127 28.1371L32.3244 28.1365C33.9765 28.1365 35.316 29.4757 35.316 31.1281V35.3162L0.615234 35.3158V31.1278C0.615234 29.4757 1.95447 28.1362 3.60685 28.1362H17.9661L17.9658 21.5553C17.9658 19.2422 16.0908 17.3672 13.7777 17.3672H8.13286L7.19655 21.5553H4.80355V23.9483H3.00878V21.5553H0.61578L0.615479 7.49531C0.780441 5.98362 2.05602 4.803 3.6071 4.803H4.80363V2.41H6.5984V4.803H23.3507V2.41H21.2566V0.615234H27.2395V2.41H25.1454V4.803H28.137C29.6881 4.803 30.9636 5.98362 31.1136 7.49531L31.1135 8.09375ZM29.3329 17.0676V7.73221C29.2668 7.06574 28.7523 6.59729 28.1363 6.59729H3.60634C3.31006 6.59729 3.02431 6.70727 2.80434 6.90558C2.58438 7.1042 2.44617 7.37734 2.41581 7.67211L2.4098 19.7598H5.75804L6.69434 15.5717L13.7773 15.572C17.0817 15.572 19.7601 18.2505 19.7601 21.5549V27.837H29.3332L29.3329 17.0676ZM2.4098 33.5207H33.5213V31.1274C33.5213 30.8101 33.3951 30.5057 33.171 30.2815C32.9465 30.0571 32.6421 29.9309 32.3248 29.9309H3.60636C3.28905 29.9309 2.98467 30.0571 2.76021 30.2815C2.53604 30.5057 2.40984 30.8101 2.40984 31.1274L2.4098 33.5207ZM31.1275 9.88837V15.273H32.3243C32.6416 15.273 32.946 15.1468 33.1705 14.9226C33.3947 14.6982 33.5209 14.3938 33.5209 14.0765V11.0849C33.5209 10.7675 33.3947 10.4632 33.1705 10.2387C32.946 10.0145 32.6416 9.88834 32.3243 9.88834L31.1275 9.88837ZM24.5463 15.5723C22.8943 15.5723 21.5547 14.2331 21.5547 12.5807C21.5547 10.9286 22.894 9.58906 24.5463 9.58906C26.1984 9.58906 27.538 10.9283 27.538 12.5807C27.538 14.2328 26.1987 15.5723 24.5463 15.5723ZM24.5463 13.7775V13.7772C24.9739 13.7772 25.369 13.5492 25.5827 13.179C25.7964 12.8088 25.7964 12.3527 25.5827 11.9824C25.3691 11.6122 24.9739 11.3842 24.5463 11.3842C24.1191 11.3842 23.724 11.6122 23.5103 11.9824C23.2963 12.3526 23.2963 12.8087 23.5103 13.179C23.7239 13.5492 24.119 13.7772 24.5463 13.7772V13.7775ZM21.555 20.3584V18.5636H27.5379V20.3584H21.555ZM21.555 24.8454V23.0507H27.5379V24.8454L21.555 24.8457V24.8454Z" fill="#007BFB"/>
</svg>
