<svg width="48" height="22" viewBox="0 0 48 22" fill="none" xmlns="http://www.w3.org/2000/svg">
<path fill-rule="evenodd" clip-rule="evenodd" d="M28.704 0.215094C28.423 0.211332 28.1454 0.250452 27.8656 0.305747C26.7454 0.525804 25.4939 1.10508 24.1514 1.89127C24.1514 1.89127 24.151 1.89127 24.151 1.89164C22.5855 2.80946 20.9346 4.0169 19.5164 5.32412H19.516C17.818 6.89086 16.7422 8.05432 16.2479 8.79907C16.2472 8.80058 16.2464 8.8017 16.2457 8.80283C15.9662 9.22752 15.1556 9.86132 14.2234 10.3522C13.3086 10.8341 12.2847 11.2182 11.5824 11.4134C9.24232 11.8163 5.3168 12.478 2.90747 13.8674C2.90634 13.8678 2.90521 13.8674 2.90408 13.8674C2.53394 14.0792 2.23377 14.1842 1.83885 14.4249C1.44388 14.666 1.01808 15.1039 0.759275 15.6538C0.758899 15.6538 0.758147 15.6538 0.757771 15.6591C0.301114 16.6254 0.183758 17.6659 0.457595 18.6093C0.731818 19.5535 1.36827 20.3563 2.21423 20.9727C2.21461 20.9731 2.21499 20.9731 2.21536 20.9731C2.83866 21.4279 3.47357 21.4798 4.18607 21.534C4.89926 21.5881 5.71438 21.5878 6.64653 21.6069H6.64616H6.64879C9.41923 21.657 13.5456 21.5524 17.7344 21.5524C18.4303 21.5524 19.4952 21.6152 20.6316 21.2029L20.6312 21.2033C20.6316 21.2029 20.632 21.2029 20.632 21.2029C25.1955 19.543 29.2844 18.3077 31.2323 17.7408V20.7151C31.2323 21.3106 31.7149 21.7931 32.3107 21.7931H46.2833C46.8787 21.7931 47.3617 21.3105 47.3617 20.7151V16.3528C47.3613 16.1546 47.306 15.9608 47.2026 15.7919C48.0102 13.6701 47.8567 11.1776 47.4339 9.08163C47.1841 7.84297 46.8272 6.74423 46.4161 5.90048C46.2103 5.47843 46 5.1207 45.7127 4.80665C45.4253 4.4926 44.928 4.07202 44.1975 4.24016V4.23978C43.9636 4.29357 43.7544 4.4241 43.6028 4.6103C43.1932 5.11361 42.2434 5.51195 40.9039 5.60639C39.5644 5.70083 37.9154 5.50558 36.3434 5.10685C34.7715 4.70813 33.2691 4.10403 32.2125 3.45932C31.1578 2.81609 30.7037 2.11377 30.6891 1.95585V1.95547V1.95509C30.6349 1.31525 30.1489 0.623509 29.5629 0.386524C29.2695 0.268032 28.9851 0.220635 28.7041 0.216504L28.704 0.215094ZM28.5724 2.38812C28.7962 3.68243 29.857 4.54766 31.0893 5.29954C32.4001 6.09925 34.0624 6.75226 35.8131 7.19609C37.5637 7.64034 39.3952 7.87393 41.0555 7.75657C42.2995 7.66892 43.4923 7.39245 44.4285 6.74844C44.4447 6.77966 44.4609 6.81126 44.477 6.84436C44.7746 7.45486 45.1011 8.42343 45.3196 9.50676C45.7097 11.4394 45.715 13.7404 45.0755 15.2733H32.3105L32.3108 15.2736H32.2841C32.148 15.2601 32.011 15.2729 31.8798 15.3109C31.8798 15.3109 26.3209 16.8366 19.8957 19.174C19.8953 19.174 19.8949 19.1744 19.8949 19.1744C19.2517 19.4076 18.505 19.3941 17.7342 19.3941C13.51 19.3941 9.36397 19.4971 6.68809 19.449V19.4493C5.73416 19.4298 4.92953 19.4268 4.34992 19.3824C3.76989 19.338 3.44 19.1958 3.48626 19.2297V19.2293C3.48626 19.2289 3.48588 19.2289 3.48551 19.2285C2.93481 18.8272 2.64705 18.4119 2.52894 18.0061C2.41082 17.5998 2.43339 17.159 2.70874 16.577C2.70949 16.5751 2.70987 16.5733 2.71025 16.5718C2.82874 16.3186 2.81745 16.3528 2.96227 16.2648C3.10709 16.1764 3.47235 16.0267 3.97974 15.7359H3.98275C5.7078 14.7402 9.70333 13.9247 12.0069 13.5275C12.0408 13.5215 12.0743 13.5139 12.1077 13.5049C12.9906 13.2642 14.1319 12.8365 15.2283 12.259C16.3237 11.682 17.3803 10.9977 18.045 9.99039C18.241 9.6951 19.3548 8.40641 20.9783 6.90813C21.1389 6.75992 21.304 6.61285 21.4722 6.46653L24.0899 9.12825C24.2892 9.3374 24.5642 9.45777 24.8531 9.46266C25.142 9.46717 25.4207 9.35583 25.6269 9.15309C25.833 8.95034 25.9489 8.67348 25.9492 8.38459C25.9492 8.09571 25.8334 7.81885 25.6276 7.61573L23.1695 5.11616C23.2436 5.062 23.3177 5.00821 23.3922 4.95517L25.9022 7.50288V7.50325C26.1023 7.71127 26.3769 7.83013 26.6654 7.83427C26.9536 7.83803 27.2316 7.72631 27.4369 7.52394C27.6423 7.32156 27.7582 7.04546 27.7582 6.75733C27.7585 6.46882 27.6438 6.19234 27.4388 5.98959L25.236 3.75369C25.2375 3.75256 25.239 3.75143 25.2409 3.75106C25.2409 3.75106 25.2413 3.75068 25.2417 3.75068C26.4604 3.0371 27.611 2.55227 28.2814 2.42063C28.3976 2.39769 28.495 2.38941 28.5725 2.38678L28.5724 2.38812ZM33.3891 17.4306H45.2047V19.6359H33.3891V17.4306Z" fill="#007BFB"/>
</svg>
