<svg width="160" height="40" viewBox="0 0 160 40" fill="none" xmlns="http://www.w3.org/2000/svg">
<g clip-path="url(#clip0_402_11125)">
<path fill-rule="evenodd" clip-rule="evenodd" d="M23.8129 21.3726C22.3996 19.9082 19.8182 18.9305 16.8648 18.9305C15.876 18.9305 14.9309 19.0415 14.0558 19.2379V19.2422V19.2379C14.3971 17.7564 14.5765 16.2152 14.5765 14.6355C14.5765 8.95293 12.275 3.7955 8.53849 0H8.53412H8.53849C17.3986 2.64276 23.8435 10.682 23.8435 20.19C23.8435 20.587 23.8304 20.9841 23.8129 21.3726Z" fill="#007BFB"/>
<path d="M10.3281 1.80591H10.3237" stroke="#2A2D32" stroke-width="0.21"/>
<path fill-rule="evenodd" clip-rule="evenodd" d="M21.2883 36.6528C19.14 38.2282 16.4754 39.159 13.5833 39.159C6.48648 39.159 0.728516 33.5404 0.728516 26.6155C0.728516 20.0193 6.1277 14.6911 12.7607 14.1958C7.93472 15.8267 4.30318 20.2285 4.30318 25.4926C4.30318 32.1444 9.82925 37.5366 16.6461 37.5366C18.2868 37.5366 19.8576 37.2249 21.2883 36.6528Z" fill="#007BFB"/>
<path d="M26.1885 23.9934C26.1885 23.9893 26.1885 23.9853 26.1885 23.9812V23.9934Z" stroke="#2A2D32" stroke-width="0.215"/>
<path fill-rule="evenodd" clip-rule="evenodd" d="M24.5479 29.5613C26.6656 26.4019 27.1469 22.4015 26.5693 18.7298C25.9961 15.071 24.2941 11.7024 21.7914 8.93584C20.3169 7.30493 18.593 5.89176 16.716 4.71767C15.1978 3.77414 13.5789 2.98857 11.8944 2.36523C14.524 5.64413 16.1778 9.65737 16.6023 13.7987C12.4413 13.3888 8.1272 15.6559 6.18891 19.2721C4.00999 23.3408 5.01632 28.7458 8.57786 31.76C11.1549 33.9417 14.8171 34.7059 18.1249 34.0057C20.7982 33.4336 23.069 31.7643 24.5479 29.5613Z" fill="#9ECDFF"/>
<path fill-rule="evenodd" clip-rule="evenodd" d="M32.638 37.5067L34.1649 35.9954V35.4958H34.7556V38.6851H34.1649V36.7084L32.638 38.2112V38.6851H32.056V35.4958H32.638V37.5067Z" fill="#007BFB"/>
<path fill-rule="evenodd" clip-rule="evenodd" d="M42.2942 37.7714L42.688 38.0958C42.373 38.5399 41.9398 38.7576 41.3842 38.7576C40.8635 38.7576 40.4697 38.5996 40.2028 38.288C39.9403 37.9763 39.8046 37.5921 39.7959 37.131C39.7959 36.8705 39.8353 36.6314 39.9097 36.4222C39.984 36.213 40.0978 36.0337 40.2509 35.88C40.3997 35.7306 40.5835 35.6111 40.7979 35.5299C41.0122 35.4488 41.2398 35.4104 41.4804 35.4104C41.8961 35.4104 42.2855 35.5726 42.6443 35.8971L42.303 36.2942C42.0448 36.0636 41.7736 35.9355 41.4848 35.9142C41.2223 35.9057 40.9816 35.991 40.7672 36.1746C40.5528 36.3582 40.4478 36.6741 40.4522 37.1224C40.4566 37.5024 40.5485 37.7842 40.7235 37.9763C40.9029 38.1684 41.1348 38.2624 41.4192 38.2624C41.7386 38.2624 42.0273 38.0958 42.2942 37.7714Z" fill="#007BFB"/>
<path fill-rule="evenodd" clip-rule="evenodd" d="M48.245 36.6954C48.4112 36.7039 48.5469 36.6954 48.6519 36.6655C48.7569 36.6356 48.8619 36.563 48.9625 36.452C48.9713 36.4392 49.0107 36.3837 49.0719 36.2855C49.1375 36.1873 49.1769 36.1318 49.19 36.1147C49.3432 35.8458 49.4876 35.6622 49.6276 35.5597C49.7676 35.4615 49.9645 35.4103 50.2183 35.4146V35.897C50.0389 35.9312 49.9032 36.0123 49.807 36.1404C49.7763 36.1873 49.7457 36.2343 49.7195 36.2898C49.6932 36.3453 49.6713 36.388 49.6538 36.4264C49.4569 36.7637 49.26 36.9473 49.05 36.9686V36.99C49.2644 37.0497 49.4351 37.1821 49.5707 37.3913C49.6013 37.434 49.6713 37.5663 49.772 37.7798C49.8726 37.9677 49.9645 38.0957 50.0432 38.164C50.122 38.2281 50.2401 38.2622 50.402 38.2537V38.7532C50.3276 38.7618 50.262 38.766 50.2008 38.766C49.9732 38.766 49.7895 38.7063 49.6538 38.591C49.5138 38.4757 49.3738 38.2836 49.2251 38.0146C49.2119 37.9847 49.1944 37.9506 49.1725 37.9122C49.1463 37.8695 49.1244 37.831 49.1025 37.7883C49.0807 37.7456 49.0632 37.7115 49.0457 37.6859C48.9275 37.4724 48.8225 37.3358 48.7219 37.2803C48.6212 37.2205 48.4594 37.1992 48.2406 37.212V38.6892H47.6543V35.4999H48.2406V36.6954H48.245Z" fill="#007BFB"/>
<path fill-rule="evenodd" clip-rule="evenodd" d="M56.7461 37.7672L57.5031 35.4958H58.1419L57.1837 38.2795C57.0393 38.6552 56.8993 38.9626 56.7593 39.2102C56.6193 39.4536 56.4399 39.6542 56.2167 39.8037C55.9936 39.9531 55.7267 40.0171 55.4117 39.9915V39.4621C55.7048 39.4365 55.928 39.3511 56.0898 39.2102C56.2517 39.0693 56.3655 38.8516 56.4311 38.5527L55.101 35.4958H55.7661L56.7461 37.7672Z" fill="#007BFB"/>
<path fill-rule="evenodd" clip-rule="evenodd" d="M65.3177 37.7714L65.7114 38.0958C65.3964 38.5399 64.9633 38.7576 64.4076 38.7576C63.8825 38.7576 63.4931 38.5996 63.2262 38.288C62.9637 37.9763 62.8281 37.5921 62.8193 37.131C62.8193 36.8705 62.8587 36.6314 62.9331 36.4222C63.0075 36.213 63.1212 36.0337 63.2744 35.88C63.4231 35.7306 63.6069 35.6111 63.8213 35.5299C64.0357 35.4488 64.2632 35.4104 64.5038 35.4104C64.9195 35.4104 65.3089 35.5726 65.6677 35.8971L65.3264 36.2942C65.0683 36.0636 64.797 35.9355 64.5082 35.9142C64.2413 35.9057 64.0051 35.991 63.7907 36.1746C63.5763 36.3582 63.4713 36.6741 63.4756 37.1224C63.48 37.5024 63.5719 37.7842 63.7513 37.9763C63.9307 38.1684 64.1626 38.2624 64.447 38.2624C64.762 38.2624 65.0508 38.0958 65.3177 37.7714Z" fill="#007BFB"/>
<path fill-rule="evenodd" clip-rule="evenodd" d="M72.9261 37.7714L73.3242 38.0958C73.0092 38.5399 72.576 38.7576 72.0204 38.7576C71.4953 38.7576 71.1059 38.5996 70.839 38.288C70.5721 37.9763 70.4365 37.5921 70.4277 37.131C70.4277 36.8705 70.4671 36.6314 70.5415 36.4222C70.6202 36.213 70.7296 36.0337 70.8828 35.88C71.0315 35.7306 71.2153 35.6111 71.4297 35.5299C71.6441 35.4446 71.8716 35.4104 72.1122 35.4104C72.5279 35.4104 72.9173 35.5726 73.2761 35.8971L72.9348 36.2942C72.6767 36.0636 72.4054 35.9355 72.1166 35.9142C71.8541 35.9057 71.6135 35.991 71.3991 36.1746C71.1847 36.3582 71.0797 36.6741 71.084 37.1224C71.0884 37.5024 71.1803 37.7842 71.3597 37.9763C71.5391 38.1684 71.771 38.2624 72.0597 38.2624C72.3704 38.2624 72.6592 38.0958 72.9261 37.7714Z" fill="#007BFB"/>
<path fill-rule="evenodd" clip-rule="evenodd" d="M78.9731 38.685V35.9739H77.958V35.4915H80.5395V35.9739H79.5594V38.685H78.9731Z" fill="#007BFB"/>
<path fill-rule="evenodd" clip-rule="evenodd" d="M85.5185 38.6851V35.4958H86.7698C87.5049 35.4958 87.8681 35.7563 87.8637 36.2814C87.8549 36.4437 87.8024 36.5931 87.7105 36.7254C87.6143 36.8578 87.4787 36.9474 87.3036 36.9859C87.4918 37.0029 87.6624 37.0755 87.8243 37.1951C87.9862 37.3189 88.0693 37.5067 88.0737 37.7672C88.0912 38.382 87.693 38.6894 86.8749 38.6894H85.5185V38.6851ZM86.1004 36.7852H86.5948C86.8048 36.7852 86.958 36.7511 87.0542 36.6827C87.1549 36.6144 87.1986 36.4949 87.1811 36.3241C87.168 36.1875 87.1111 36.0936 87.0105 36.0466C86.9099 36.0039 86.7698 35.9783 86.5948 35.9783H86.1004V36.7852ZM86.1004 38.1984H86.6911C86.9317 38.1984 87.1111 38.1685 87.238 38.1087C87.3605 38.049 87.413 37.9166 87.3999 37.7117C87.3912 37.5537 87.3386 37.4384 87.2424 37.3701C87.1461 37.3018 86.9624 37.2634 86.6955 37.2634H86.1048V38.1984H86.1004Z" fill="#007BFB"/>
<path fill-rule="evenodd" clip-rule="evenodd" d="M94.5799 38.7619C93.9936 38.7619 93.5648 38.5868 93.2891 38.241C93.0135 37.8909 92.8778 37.4981 92.8866 37.0541C92.8953 36.7681 92.9697 36.4948 93.1054 36.2472C93.2454 35.9953 93.4423 35.7947 93.7004 35.6452C93.9586 35.4958 94.2473 35.4189 94.5799 35.4189C95.0699 35.4189 95.4724 35.5812 95.7875 35.8971C96.1025 36.2131 96.2644 36.6016 96.2731 37.0584C96.2863 37.511 96.155 37.908 95.875 38.2496C95.5993 38.5911 95.1662 38.7619 94.5799 38.7619ZM94.5799 38.2666C94.8511 38.2666 95.0655 38.2026 95.2187 38.0745C95.3718 37.9464 95.4768 37.7927 95.5293 37.6134C95.5818 37.4341 95.6081 37.2548 95.6081 37.0669C95.6081 36.7595 95.5293 36.4906 95.3674 36.26C95.2055 36.0295 94.943 35.9142 94.5799 35.9142C94.2167 35.9142 93.9586 36.0295 93.801 36.26C93.6435 36.4906 93.5604 36.7595 93.5517 37.0669C93.5517 37.3786 93.626 37.6561 93.7748 37.8995C93.9192 38.1428 94.1905 38.2666 94.5799 38.2666Z" fill="#007BFB"/>
<path fill-rule="evenodd" clip-rule="evenodd" d="M109.841 36.9944V35.4958H110.432V38.6851H109.841V37.4939C109.465 37.5921 109.137 37.6434 108.848 37.6476C108.423 37.6476 108.152 37.5537 108.034 37.3616C107.916 37.1695 107.859 36.9261 107.859 36.6272V35.4958H108.45V36.6272C108.45 36.8364 108.48 36.9731 108.533 37.0414C108.59 37.1097 108.686 37.1481 108.826 37.1566C109.093 37.1652 109.43 37.1097 109.841 36.9944Z" fill="#007BFB"/>
<path fill-rule="evenodd" clip-rule="evenodd" d="M116.312 37.5067L117.839 35.9954V35.4958H118.43V38.6851H117.839V36.7084L116.312 38.2112V38.6851H115.73V35.4958H116.312V37.5067Z" fill="#007BFB"/>
<path fill-rule="evenodd" clip-rule="evenodd" d="M125.969 37.7714L126.362 38.0958C126.047 38.5399 125.614 38.7576 125.058 38.7576C124.538 38.7576 124.144 38.5996 123.877 38.288C123.615 37.9763 123.479 37.5921 123.47 37.131C123.47 36.8705 123.51 36.6314 123.584 36.4222C123.663 36.213 123.772 36.0337 123.925 35.88C124.074 35.7306 124.258 35.6111 124.472 35.5299C124.687 35.4446 124.918 35.4104 125.155 35.4104C125.57 35.4104 125.96 35.5726 126.323 35.8971L125.982 36.3027C125.723 36.0722 125.448 35.9441 125.159 35.9227C124.897 35.9142 124.656 35.9996 124.442 36.1832C124.227 36.3667 124.122 36.6827 124.127 37.131C124.131 37.5109 124.223 37.7927 124.402 37.9848C124.582 38.177 124.813 38.2709 125.098 38.2709C125.408 38.2624 125.697 38.0958 125.969 37.7714Z" fill="#007BFB"/>
<path fill-rule="evenodd" clip-rule="evenodd" d="M132.011 38.685V35.9739H130.996V35.4915H133.578V35.9739H132.597V38.685H132.011Z" fill="#007BFB"/>
<path fill-rule="evenodd" clip-rule="evenodd" d="M140.009 38.7619C139.427 38.7619 138.994 38.5868 138.718 38.241C138.443 37.8909 138.307 37.4981 138.316 37.0541C138.325 36.7681 138.399 36.4948 138.539 36.2472C138.679 35.9953 138.876 35.7947 139.13 35.6452C139.388 35.4958 139.677 35.4189 140.009 35.4189C140.499 35.4189 140.902 35.5812 141.217 35.8971C141.532 36.2131 141.694 36.6016 141.702 37.0584C141.716 37.511 141.584 37.908 141.304 38.2496C141.029 38.5911 140.6 38.7619 140.009 38.7619ZM140.009 38.2666C140.28 38.2666 140.495 38.2026 140.648 38.0745C140.801 37.9464 140.906 37.7927 140.959 37.6134C141.011 37.4341 141.037 37.2548 141.037 37.0669C141.037 36.7595 140.959 36.4906 140.797 36.26C140.635 36.0295 140.372 35.9142 140.009 35.9142C139.65 35.9142 139.388 36.0295 139.23 36.26C139.073 36.4906 138.99 36.7595 138.981 37.0669C138.981 37.3786 139.055 37.6561 139.204 37.8995C139.353 38.1428 139.62 38.2666 140.009 38.2666Z" fill="#007BFB"/>
<path fill-rule="evenodd" clip-rule="evenodd" d="M147.43 38.685V35.9739H146.415V35.4915H148.996V35.9739H148.02V38.685H147.43Z" fill="#007BFB"/>
<path fill-rule="evenodd" clip-rule="evenodd" d="M153.975 35.4958H154.561V36.4565H155.082C155.506 36.4565 155.83 36.5376 156.058 36.6998C156.281 36.8621 156.395 37.1396 156.403 37.5238C156.421 37.9593 156.312 38.2582 156.071 38.4289C155.83 38.5954 155.476 38.6808 155.003 38.6808H153.984V35.4958H153.975ZM154.561 38.1984H155.034C155.235 38.1984 155.41 38.16 155.55 38.0788C155.69 38.002 155.76 37.8355 155.76 37.5836C155.765 37.1566 155.524 36.9389 155.034 36.9389H154.561V38.1984ZM157.051 38.6851L157.06 35.4958H157.637V38.6851H157.051Z" fill="#007BFB"/>
<path fill-rule="evenodd" clip-rule="evenodd" d="M45.3569 12.4197H57.6079V16.1554H53.7795V29.2582H49.3472V16.1554H45.3525V12.4197H45.3569Z" fill="#007BFB"/>
<path fill-rule="evenodd" clip-rule="evenodd" d="M77.7349 12.3472H82.1452V18.6787H88.2707V12.3472H93.0836V29.3522H88.2707V22.5937H82.1102V29.3522H77.7349V12.3472Z" fill="#007BFB"/>
<path fill-rule="evenodd" clip-rule="evenodd" d="M160 12.4197V16.1554H156.172V29.2582H151.739V16.1554H147.749V12.4197H160Z" fill="#9ECDFF"/>
<path fill-rule="evenodd" clip-rule="evenodd" d="M144.695 13.8883C143.588 12.8636 142.149 12.3257 140.626 12.3257H132.895V29.2581H137.717V23.6439C137.717 23.6439 140.031 23.6439 140.954 23.6439C141.571 23.6439 142.149 23.5884 142.713 23.3279C144.914 22.3161 146.34 20.1856 146.34 17.8119C146.34 16.3304 145.807 14.9129 144.695 13.8883ZM141.646 18.0936C141.646 19.1311 140.775 19.985 139.707 19.985H137.66V16.087H139.707C140.775 16.087 141.646 16.9366 141.646 17.9784V18.0936Z" fill="#9ECDFF"/>
<path fill-rule="evenodd" clip-rule="evenodd" d="M124.354 8.43642C124.354 9.4568 123.505 10.2851 122.455 10.2851C121.409 10.2851 120.561 9.4568 120.561 8.43642C120.561 7.41176 121.409 6.5835 122.455 6.5835C123.505 6.5835 124.354 7.41176 124.354 8.43642Z" fill="#9ECDFF"/>
<path fill-rule="evenodd" clip-rule="evenodd" d="M69.942 12.3472H64.009L57.7173 29.2583H63.0815L64.009 26.4533H70.0514L70.8433 29.2583H76.0938L69.942 12.3472ZM68.9138 22.2735C68.5375 22.8371 67.96 23.2598 67.2774 23.4049C66.433 23.5842 65.501 23.3878 64.8447 22.8328C63.9347 22.0686 63.6809 20.6896 64.2366 19.6521C64.731 18.7299 65.8292 18.1536 66.888 18.256C66.783 17.2015 66.3586 16.1811 65.6892 15.3443C66.118 15.5023 66.5292 15.7029 66.9186 15.9463C67.3956 16.2409 67.8331 16.6038 68.2094 17.0179C68.8482 17.7223 69.2813 18.5805 69.4301 19.5155C69.5745 20.4505 69.452 21.4709 68.9138 22.2735Z" fill="#007BFB"/>
<path fill-rule="evenodd" clip-rule="evenodd" d="M125.514 12.3472H119.581L113.289 29.2583H118.649L119.581 26.4533H125.623L126.415 29.2583H131.666L125.514 12.3472ZM124.486 22.2735C124.105 22.8371 123.527 23.2598 122.845 23.4049C122.005 23.5842 121.073 23.3878 120.417 22.8328C119.506 22.0686 119.253 20.6896 119.808 19.6521C120.298 18.7299 121.397 18.1536 122.46 18.256C122.35 17.2015 121.93 16.1811 121.261 15.3443C121.69 15.5023 122.101 15.7029 122.486 15.9463C122.967 16.2409 123.405 16.6038 123.781 17.0179C124.42 17.7223 124.853 18.5805 124.997 19.5155C125.146 20.4505 125.024 21.4709 124.486 22.2735Z" fill="#9ECDFF"/>
<path fill-rule="evenodd" clip-rule="evenodd" d="M110.953 25.5652V12.3472H98.321V20.9244C98.321 20.9244 98.2554 22.9139 97.2797 24.0709C96.1946 25.3603 94.8032 25.7104 94.8032 25.7104V32.772H98.7367L98.7585 29.3565H109.277V32.772H113.289V25.5652H110.953ZM106.205 25.5738H101.007C101.007 25.5738 101.489 25.0401 102.036 23.9855C102.613 22.867 102.692 22.2266 102.692 22.2266V16.2238H106.205V25.5738Z" fill="#007BFB"/>
<path fill-rule="evenodd" clip-rule="evenodd" d="M43.9922 28.5794V23.8788C43.1171 24.9461 41.7957 25.6292 40.3169 25.6292C37.6873 25.6292 35.5565 23.4817 35.5565 20.8389C35.5565 18.1919 37.6873 16.0487 40.3169 16.0487C41.7957 16.0487 43.1171 16.7275 43.9922 17.7949V13.1071C42.6358 12.2489 41.03 11.7537 39.3105 11.7537C34.3883 11.7537 30.3936 15.8224 30.3936 20.8432C30.3936 25.864 34.3883 29.9328 39.3105 29.9328C41.03 29.9328 42.6358 29.4375 43.9922 28.5794Z" fill="#007BFB"/>
</g>
<defs>
<clipPath id="clip0_402_11125">
<rect width="160" height="40" fill="white"/>
</clipPath>
</defs>
</svg>
