<svg width="44" height="26" viewBox="0 0 44 26" fill="none" xmlns="http://www.w3.org/2000/svg">
<path d="M43.2432 12.973C43.2432 20.0915 37.4553 25.9459 30.2703 25.9459C23.1518 25.9459 17.2973 20.0915 17.2973 12.973C17.2973 5.85447 23.0852 0 30.2037 0C37.4553 0 43.2432 5.85447 43.2432 12.973Z" fill="#F9B50B"/>
<path d="M25.8794 13.0395C25.8794 12.1081 25.7463 11.1767 25.6133 10.3118H17.6299C17.6965 9.84615 17.8295 9.44698 17.9626 8.91476H25.0811C24.948 8.44906 24.7484 7.98336 24.5488 7.51767H18.4948C18.6944 7.05197 18.9605 6.6528 19.2266 6.12058H23.817C23.5509 5.65488 23.2183 5.18919 22.8191 4.72349H20.291C20.6902 4.25779 21.0894 3.85863 21.6216 3.39293C19.3597 1.26403 16.2994 0 12.9064 0C5.85447 0.199584 0 5.85447 0 12.973C0 20.0915 5.78794 25.9459 12.973 25.9459C16.3659 25.9459 19.3597 24.6154 21.6881 22.553C22.1538 22.1538 22.553 21.6881 23.0187 21.1559H20.3576C20.0249 20.7567 19.6923 20.291 19.4262 19.8254H23.9501C24.2162 19.4262 24.4823 18.9605 24.6819 18.4283H18.6278C18.4283 18.0291 18.2287 17.5634 18.0956 17.0312H25.2141C25.6133 15.8337 25.8794 14.5031 25.8794 13.0395Z" fill="#C8191C"/>
<path d="M17.5632 16.2992L17.7628 15.1017C17.6963 15.1017 17.5632 15.1682 17.4302 15.1682C16.9645 15.1682 16.8979 14.9021 16.9645 14.769L17.3636 12.374H18.0954L18.295 11.0435H17.6298L17.7628 10.2451H16.3657C16.3657 10.2451 15.5674 14.769 15.5674 15.3012C15.5674 16.0996 16.0331 16.4988 16.6984 16.4988C17.0975 16.4988 17.4302 16.3657 17.5632 16.2992Z" fill="white"/>
<path d="M18.0288 14.1036C18.0288 16.033 19.3594 16.4986 20.4238 16.4986C21.4217 16.4986 21.8874 16.2991 21.8874 16.2991L22.1535 14.9685C22.1535 14.9685 21.4217 15.3011 20.6899 15.3011C19.1598 15.3011 19.4259 14.1702 19.4259 14.1702H22.2201C22.2201 14.1702 22.4197 13.3053 22.4197 12.9061C22.4197 12.0413 21.954 10.9103 20.4238 10.9103C19.0933 10.8438 18.0288 12.3739 18.0288 14.1036ZM20.4238 12.1078C21.1556 12.1078 21.0226 12.9727 21.0226 13.0392H19.4924C19.559 12.9727 19.692 12.1078 20.4238 12.1078Z" fill="white"/>
<path d="M29.1395 16.2994L29.4056 14.7693C29.4056 14.7693 28.7403 15.1019 28.2081 15.1019C27.2767 15.1019 26.811 14.3701 26.811 13.5052C26.811 11.842 27.6094 10.9772 28.6073 10.9772C29.2726 10.9772 29.8713 11.3763 29.8713 11.3763L30.0709 9.91272C30.0709 9.91272 29.2726 9.58008 28.4742 9.58008C26.8776 9.58008 25.3474 10.9772 25.3474 13.5718C25.3474 15.3015 26.1457 16.4325 27.8089 16.4325C28.4077 16.499 29.1395 16.2994 29.1395 16.2994Z" fill="white"/>
<path d="M10.046 10.8438C9.11462 10.8438 8.38281 11.1099 8.38281 11.1099L8.18322 12.3074C8.18322 12.3074 8.78198 12.0413 9.71337 12.0413C10.1791 12.0413 10.5782 12.1078 10.5782 12.507C10.5782 12.7731 10.5117 12.8396 10.5117 12.8396H9.91295C8.71545 12.8396 7.45142 13.3053 7.45142 14.902C7.45142 16.166 8.24975 16.4321 8.78198 16.4321C9.71337 16.4321 10.1791 15.8334 10.2456 15.8334L10.1791 16.3656H11.31L11.8423 12.5735C11.8423 10.9103 10.5117 10.8438 10.046 10.8438ZM10.3121 13.904C10.3121 14.1036 10.1791 15.2346 9.38073 15.2346C8.98156 15.2346 8.8485 14.902 8.8485 14.7024C8.8485 14.3697 9.04809 13.904 10.1125 13.904C10.2456 13.904 10.3121 13.904 10.3121 13.904Z" fill="white"/>
<path d="M13.1725 16.4322C13.5051 16.4322 15.2348 16.4988 15.2348 14.636C15.2348 12.9062 13.5716 13.2389 13.5716 12.5736C13.5716 12.241 13.8378 12.1079 14.3035 12.1079C14.503 12.1079 15.2348 12.1744 15.2348 12.1744L15.4344 10.9104C15.4344 10.9104 14.9687 10.7773 14.1039 10.7773C13.106 10.7773 12.0415 11.1765 12.0415 12.5736C12.0415 14.1703 13.7712 14.0372 13.7712 14.636C13.7712 15.0351 13.3055 15.1017 12.9729 15.1017C12.3741 15.1017 11.7089 14.9021 11.7089 14.9021L11.5093 16.1661C11.6423 16.2992 12.0415 16.4322 13.1725 16.4322Z" fill="white"/>
<path d="M40.5821 9.78027L40.316 11.6431C40.316 11.6431 39.7838 10.9778 38.9855 10.9778C37.7214 10.9778 36.657 12.5079 36.657 14.3042C36.657 15.4352 37.1892 16.5661 38.3867 16.5661C39.185 16.5661 39.7173 16.0339 39.7173 16.0339L39.6507 16.4996H41.0478L42.0458 9.91333L40.5821 9.78027ZM39.9169 13.3728C39.9169 14.1046 39.5842 15.1025 38.7859 15.1025C38.3202 15.1025 38.0541 14.7033 38.0541 13.9715C38.0541 12.8406 38.5198 12.1753 39.185 12.1753C39.6507 12.2418 39.9169 12.5745 39.9169 13.3728Z" fill="white"/>
<path d="M2.52783 16.3665L3.32616 11.4435L3.45922 16.3665H4.39061L6.18687 11.4435L5.45506 16.3665H6.91868L8.04965 9.78027H5.7877L4.39061 13.8385L4.32408 9.78027H2.32824L1.19727 16.3665H2.52783Z" fill="white"/>
<path d="M23.8168 16.3663C24.2159 14.1044 24.2825 12.2416 25.2804 12.5742C25.4134 11.7093 25.613 11.3102 25.7461 10.9775H25.48C24.8812 10.9775 24.349 11.7759 24.349 11.7759L24.482 11.0441H23.1515L22.2866 16.3663H23.8168Z" fill="white"/>
<path d="M32.3326 10.8438C31.4012 10.8438 30.6694 11.1099 30.6694 11.1099L30.4698 12.3074C30.4698 12.3074 31.0686 12.0413 32 12.0413C32.4657 12.0413 32.8649 12.1078 32.8649 12.507C32.8649 12.7731 32.7983 12.8396 32.7983 12.8396H32.1996C31.0021 12.8396 29.738 13.3053 29.738 14.902C29.738 16.166 30.5364 16.4321 31.0686 16.4321C32 16.4321 32.4657 15.8334 32.5322 15.8334L32.4657 16.3656H33.7297L34.2619 12.5735C34.2619 10.9103 32.7983 10.8438 32.3326 10.8438ZM32.6653 13.904C32.6653 14.1036 32.5322 15.2346 31.7339 15.2346C31.3347 15.2346 31.2017 14.902 31.2017 14.7024C31.2017 14.3697 31.4012 13.904 32.4657 13.904C32.5987 13.904 32.5987 13.904 32.6653 13.904Z" fill="white"/>
<path d="M35.326 16.3663C35.7252 14.1044 35.7917 12.2416 36.7897 12.5742C36.9227 11.7093 37.1223 11.3102 37.2554 10.9775H36.9892C36.3905 10.9775 35.8583 11.7759 35.8583 11.7759L35.9913 11.0441H34.6608L33.7959 16.3663H35.326Z" fill="white"/>
</svg>
