<svg width="48" height="16" viewBox="0 0 48 16" fill="none" xmlns="http://www.w3.org/2000/svg">
<path d="M44.6116 0.879883H41.6212C40.7171 0.879883 40.0217 1.15806 39.6045 2.06212L33.9019 15.0667H37.9354C37.9354 15.0667 38.6309 13.3281 38.7699 12.9109C39.1872 12.9109 43.1512 12.9109 43.7075 12.9109C43.8466 13.3977 44.1943 14.9971 44.1943 14.9971H47.8106L44.6116 0.879883ZM39.8826 9.99004C40.2303 9.15552 41.4126 6.02608 41.4126 6.02608C41.4126 6.09562 41.7603 5.19156 41.8994 4.70476L42.1776 5.95653C42.1776 5.95653 42.9425 9.36415 43.0816 10.0596H39.8826V9.99004Z" fill="#3362AB"/>
<path d="M34.1802 10.4069C34.1802 13.3278 31.5376 15.275 27.4345 15.275C25.696 15.275 24.0269 14.9273 23.1229 14.51L23.6792 11.311L24.166 11.5196C25.4178 12.076 26.2523 12.2846 27.7823 12.2846C28.8949 12.2846 30.0772 11.8674 30.0772 10.8937C30.0772 10.2679 29.5904 9.8506 28.0604 9.15517C26.6 8.45973 24.6528 7.34704 24.6528 5.33029C24.6528 2.54856 27.365 0.670898 31.1899 0.670898C32.6503 0.670898 33.9021 0.949071 34.667 1.29679L34.1107 4.35669L33.8325 4.07851C33.1371 3.80034 32.233 3.52217 30.9117 3.52217C29.4513 3.59171 28.7559 4.2176 28.7559 4.77395C28.7559 5.39984 29.5904 5.88664 30.9117 6.51253C33.1371 7.55567 34.1802 8.73791 34.1802 10.4069Z" fill="#3362AB"/>
<path d="M0.243225 1.01841L0.312768 0.740234H6.29348C7.128 0.740234 7.75389 1.01841 7.96252 1.92247L9.28384 8.18135C7.96252 4.84328 4.90262 2.1311 0.243225 1.01841Z" fill="#F9B50B"/>
<path d="M17.6986 0.88009L11.6484 14.9974H7.54534L4.06818 3.17502C6.57173 4.77451 8.65803 7.27806 9.423 9.01664L9.84026 10.477L13.5956 0.810547H17.6986V0.88009Z" fill="#3362AB"/>
<path d="M19.2978 0.810547H23.1227L20.6887 14.9974H16.8638L19.2978 0.810547Z" fill="#3362AB"/>
</svg>
