<svg width="49" height="14" viewBox="0 0 49 14" fill="none" xmlns="http://www.w3.org/2000/svg">
<path d="M43.4882 0.0820312H34.3304C34.8638 3.10502 37.7979 5.95018 40.9987 5.95018H48.2894C48.3783 5.68345 48.3783 5.23889 48.3783 4.97215C48.3783 2.30481 46.1555 0.0820312 43.4882 0.0820312Z" fill="url(#paint0_linear_402_19931)"/>
<path d="M35.1306 6.48438V13.864H39.5761V9.95191H43.4882C45.6221 9.95191 47.4893 8.44042 48.1116 6.48438H35.1306Z" fill="#4FAD50"/>
<path d="M19.4818 0.0820312V13.7744H23.394C23.394 13.7744 24.372 13.7744 24.9054 12.7963C27.5728 7.55058 28.373 5.95018 28.373 5.95018H28.9064V13.7744H33.352V0.0820312H29.4399C29.4399 0.0820312 28.4619 0.170948 27.9284 1.06006C25.7056 5.59454 24.4609 7.90623 24.4609 7.90623H23.9274V0.0820312H19.4818Z" fill="#4FAD50"/>
<path d="M0.810516 13.8632V0.170898H5.25608C5.25608 0.170898 6.50085 0.170896 7.21214 2.12694C8.99037 7.2838 9.1682 7.99509 9.1682 7.99509C9.1682 7.99509 9.52383 6.75033 11.1242 2.12694C11.8355 0.170896 13.0803 0.170898 13.0803 0.170898H17.5259V13.8632H13.0803V6.48361H12.5468L10.0573 13.8632H8.10125L5.61175 6.48361H5.07827V13.8632H0.810516Z" fill="#4FAD50"/>
<defs>
<linearGradient id="paint0_linear_402_19931" x1="34.3145" y1="3.05816" x2="48.3469" y2="3.05816" gradientUnits="userSpaceOnUse">
<stop stop-color="#27B1E6"/>
<stop offset="1" stop-color="#148ACA"/>
</linearGradient>
</defs>
</svg>
