<svg width="31" height="27" viewBox="0 0 31 27" fill="none" xmlns="http://www.w3.org/2000/svg">
<path d="M1.02605 12.5611L7.9232 15.1329L10.6119 23.7836C10.7288 24.3681 11.4302 24.485 11.8978 24.1343L15.7555 20.9779C16.1062 20.6272 16.6907 20.6272 17.1583 20.9779L24.0554 26.0047C24.523 26.3554 25.2244 26.1216 25.3413 25.5371L30.485 0.987983C30.6019 0.403482 30.0174 -0.181015 29.4329 0.0527858L1.02605 11.0414C0.324649 11.2752 0.324649 12.3273 1.02605 12.5611ZM10.2612 13.847L23.8216 5.5471C24.0554 5.4302 24.2892 5.7809 24.0554 5.8978L12.9499 16.3019C12.5992 16.6526 12.2485 17.1202 12.2485 17.7047L11.8978 20.5103C11.8978 20.861 11.3133 20.9779 11.1964 20.5103L9.79358 15.3667C9.44288 14.7822 9.67671 14.0808 10.2612 13.847Z" fill="#007BFB"/>
</svg>
