<svg width="19" height="17" viewBox="0 0 19 17" fill="none" xmlns="http://www.w3.org/2000/svg">
<path d="M0.415607 8.33648L4.5539 9.87956L6.16711 15.0699C6.23725 15.4206 6.6581 15.4908 6.93866 15.2804L9.25328 13.3866C9.4637 13.1762 9.81441 13.1762 10.095 13.3866L14.2332 16.4026C14.5138 16.613 14.9346 16.4727 15.0048 16.122L18.0909 1.39259C18.1611 1.04189 17.8104 0.691196 17.4597 0.831476L0.415607 7.42466C-0.00523473 7.56494 -0.00523473 8.1962 0.415607 8.33648ZM5.9567 9.10802L14.0929 4.12806C14.2332 4.05792 14.3735 4.26835 14.2332 4.33849L7.56992 10.581C7.3595 10.7914 7.14907 11.0719 7.14907 11.4226L6.93866 13.106C6.93866 13.3164 6.58795 13.3866 6.51781 13.106L5.67612 10.0198C5.4657 9.66914 5.606 9.2483 5.9567 9.10802Z" fill="#007BFB"/>
</svg>
