<svg width="32" height="32" viewBox="0 0 32 32" fill="none" xmlns="http://www.w3.org/2000/svg">
<path d="M26.8902 5.09375C23.9268 2.14062 19.9756 0.5 15.8049 0.5C7.13414 0.5 0.109754 7.5 0.109754 16.1406C0.109754 18.875 0.878049 21.6094 2.19512 23.9062L0 32L8.34147 29.8125C10.6463 31.0156 13.1707 31.6719 15.8049 31.6719C24.4756 31.6719 31.5 24.6719 31.5 16.0313C31.3902 11.9844 29.8537 8.04687 26.8902 5.09375ZM23.378 21.7187C23.0488 22.5937 21.5122 23.4687 20.7439 23.5781C20.0854 23.6875 19.2073 23.6875 18.3293 23.4688C17.7805 23.25 17.0122 23.0312 16.1341 22.5938C12.1829 20.9531 9.65854 17.0156 9.43903 16.6875C9.21951 16.4687 7.79269 14.6094 7.79269 12.6406C7.79269 10.6719 8.78049 9.79687 9.10976 9.35937C9.43902 8.92187 9.87805 8.92187 10.2073 8.92187C10.4268 8.92187 10.7561 8.92187 10.9756 8.92187C11.1951 8.92187 11.5244 8.8125 11.8537 9.57812C12.1829 10.3437 12.9512 12.3125 13.061 12.4219C13.1707 12.6406 13.1707 12.8594 13.061 13.0781C12.9512 13.2969 12.8415 13.5156 12.6219 13.7344C12.4024 13.9531 12.1829 14.2812 12.0732 14.3906C11.8537 14.6094 11.6341 14.8281 11.8537 15.1562C12.0732 15.5937 12.8415 16.7969 14.0488 17.8906C15.5854 19.2031 16.7927 19.6406 17.2317 19.8594C17.6707 20.0781 17.8902 19.9687 18.1098 19.75C18.3293 19.5312 19.0976 18.6562 19.3171 18.2188C19.5366 17.7812 19.8659 17.8906 20.1951 18C20.5244 18.1094 22.5 19.0938 22.8293 19.3125C23.2683 19.5312 23.4878 19.6406 23.5976 19.75C23.7073 20.0781 23.7073 20.8437 23.378 21.7187Z" fill="#48C95F"/>
</svg>
