<svg width="19" height="19" viewBox="0 0 19 19" fill="none" xmlns="http://www.w3.org/2000/svg">
<path d="M16.1341 2.8561C14.3561 1.08423 11.9854 0.0998535 9.48293 0.0998535C4.28049 0.0998535 0.0658527 4.29985 0.0658527 9.48423C0.0658527 11.1249 0.526829 12.7655 1.31707 14.1436L0 18.9999L5.00488 17.6874C6.38781 18.4092 7.90244 18.803 9.48293 18.803C14.6854 18.803 18.9 14.603 18.9 9.4186C18.8341 6.99048 17.9122 4.62798 16.1341 2.8561ZM14.0268 12.8311C13.8293 13.3561 12.9073 13.8811 12.4463 13.9467C12.0512 14.0124 11.5244 14.0124 10.9976 13.8811C10.6683 13.7499 10.2073 13.6186 9.68049 13.3561C7.30976 12.3717 5.79512 10.0092 5.66342 9.81235C5.53171 9.6811 4.67561 8.56548 4.67561 7.38423C4.67561 6.20298 5.26829 5.67798 5.46585 5.41548C5.66341 5.15298 5.92683 5.15298 6.12439 5.15298C6.2561 5.15298 6.45366 5.15298 6.58536 5.15298C6.71707 5.15298 6.91463 5.08735 7.1122 5.54673C7.30976 6.0061 7.77073 7.18735 7.83658 7.25298C7.90244 7.38423 7.90244 7.51548 7.83658 7.64673C7.77073 7.77798 7.70488 7.90923 7.57317 8.04048C7.44146 8.17173 7.30975 8.3686 7.2439 8.43423C7.11219 8.56548 6.98049 8.69673 7.1122 8.8936C7.2439 9.1561 7.70488 9.87798 8.42927 10.5342C9.35122 11.3217 10.0756 11.5842 10.339 11.7155C10.6024 11.8467 10.7341 11.7811 10.8659 11.6499C10.9976 11.5186 11.4585 10.9936 11.5902 10.7311C11.722 10.4686 11.9195 10.5342 12.1171 10.5999C12.3146 10.6655 13.5 11.2561 13.6976 11.3874C13.961 11.5186 14.0927 11.5842 14.1585 11.6499C14.2244 11.8467 14.2244 12.3061 14.0268 12.8311Z" fill="#48C95F"/>
</svg>
