<svg width="32" height="35" viewBox="0 0 32 35" fill="none" xmlns="http://www.w3.org/2000/svg">
<path d="M24.3809 0.818871C18.6636 -0.272957 12.7264 -0.272957 7.00916 0.818871C4.48036 1.36478 1.29188 4.4219 0.742147 6.82392C-0.247382 11.5188 -0.247382 16.3228 0.742147 21.0177C1.40183 23.4197 4.59031 26.4768 7.00916 27.0227C7.11911 27.0227 7.22905 27.1319 7.22905 27.2411V34.1196C7.22905 34.4472 7.66885 34.6655 7.88874 34.338L11.1872 30.9533C11.1872 30.9533 13.8259 28.2237 14.2657 27.787C14.2657 27.787 14.3757 27.6778 14.4856 27.6778C17.784 27.787 21.1924 27.4595 24.4908 26.9135C27.0196 26.3676 30.2081 23.3105 30.7579 20.9085C31.7474 16.2136 31.7474 11.4096 30.7579 6.71474C30.0982 4.4219 26.9097 1.36478 24.3809 0.818871ZM24.4908 21.3452C23.9411 22.4371 23.2814 23.3105 22.1819 23.8564C21.8521 23.9656 21.5223 24.0748 21.1924 24.184C20.7526 24.0748 20.4228 23.9656 20.0929 23.8564C16.5746 22.4371 13.2762 20.4718 10.6374 17.633C9.20812 15.9953 7.99869 14.1392 7.00916 12.1739C6.56937 11.1912 6.12958 10.3178 5.79974 9.33512C5.46989 8.46166 6.01963 7.5882 6.56937 6.9331C7.11911 6.27801 7.7788 5.84128 8.54843 5.51373C9.09817 5.18618 9.64791 5.40455 10.0877 5.84128C10.9673 6.9331 11.8469 8.02493 12.5065 9.22594C12.9463 9.99022 12.8364 10.8637 12.0668 11.4096C11.8469 11.5188 11.7369 11.628 11.517 11.8463C11.4071 11.9555 11.1872 12.0647 11.0772 12.2831C10.8573 12.6106 10.8573 12.9382 10.9673 13.2657C11.8469 15.7769 13.4961 17.7422 16.0249 18.834C16.4647 19.0524 16.7945 19.1616 17.3442 19.1616C18.1139 19.0524 18.4437 18.1789 18.9935 17.7422C19.5432 17.3055 20.2029 17.3055 20.8626 17.633C21.4123 17.9606 21.962 18.3973 22.6217 18.834C23.1715 19.2708 23.7212 19.5983 24.2709 20.035C24.6008 20.2534 24.7107 20.7993 24.4908 21.3452ZM19.873 13.1565C19.6531 13.1565 19.7631 13.1565 19.873 13.1565C19.4332 13.1565 19.3233 12.9382 19.2133 12.6106C19.2133 12.3922 19.2133 12.0647 19.1034 11.8463C18.9935 11.4096 18.7736 10.9729 18.3338 10.6453C18.1139 10.5361 17.894 10.427 17.6741 10.3178C17.3442 10.2086 17.1243 10.2086 16.7945 10.2086C16.4647 10.0994 16.3547 9.88104 16.3547 9.55349C16.3547 9.33512 16.6846 9.11676 16.9044 9.11676C18.6636 9.22594 19.983 10.2086 20.2029 12.2831C20.2029 12.3922 20.2029 12.6106 20.2029 12.7198C20.2029 12.9382 20.0929 13.1565 19.873 13.1565ZM18.7736 8.35248C18.2238 8.13411 17.6741 7.91575 17.0144 7.80657C16.7945 7.80657 16.4647 7.69738 16.2448 7.69738C15.9149 7.69738 15.695 7.47902 15.805 7.15147C15.805 6.82392 16.0249 6.60556 16.3547 6.71474C17.4542 6.82392 18.4437 7.04229 19.4332 7.47902C21.4123 8.46166 22.5118 10.0994 22.8416 12.2831C22.8416 12.3922 22.8416 12.5014 22.8416 12.6106C22.8416 12.829 22.8416 13.0473 22.8416 13.3749C22.8416 13.4841 22.8416 13.5933 22.8416 13.7024C22.7317 14.1392 21.962 14.2483 21.8521 13.7024C21.8521 13.5933 21.7421 13.3749 21.7421 13.2657C21.7421 12.2831 21.5223 11.3004 21.0825 10.427C20.4228 9.44431 19.6531 8.78921 18.7736 8.35248ZM24.7107 14.9034C24.3809 14.9034 24.161 14.5759 24.161 14.2483C24.161 13.5933 24.051 12.9382 23.9411 12.2831C23.5013 8.78921 20.6427 5.95046 17.2343 5.40454C16.6846 5.29536 16.1348 5.29536 15.695 5.18618C15.3652 5.18618 14.9254 5.18618 14.8154 4.74945C14.7055 4.4219 15.0353 4.09435 15.3652 4.09435C15.4751 4.09435 15.5851 4.09435 15.5851 4.09435C20.0929 4.20354 15.805 4.09435 15.5851 4.09435C20.2029 4.20354 24.051 7.26065 24.8207 11.8463C24.9306 12.6106 25.0406 13.3749 25.0406 14.2483C25.2605 14.5759 25.0406 14.9034 24.7107 14.9034Z" fill="#783294"/>
</svg>
