<svg width="80" height="80" viewBox="0 0 80 80" fill="none" xmlns="http://www.w3.org/2000/svg">
<path d="M73.9288 36.2013L67.1288 18.068C67.0119 17.7553 66.763 17.5104 66.4488 17.3981L50.3283 11.7097L46.5883 6.47459V6.47509C46.3758 6.17708 46.0327 6.00051 45.6669 6H34.3336C33.9673 6 33.6237 6.17708 33.4112 6.47509L29.6712 11.7102L13.5559 17.3981C13.2417 17.5104 12.9928 17.7553 12.8759 18.068L6.07589 36.2013C6.02682 36.3283 6.00152 36.4634 6 36.6V72.8667C6 73.1672 6.11941 73.4556 6.3319 73.6681C6.5444 73.8806 6.8328 74 7.13333 74H16.2C16.5005 74 16.7889 73.8806 17.0014 73.6681C17.2139 73.4556 17.3333 73.1672 17.3333 72.8667V41.4015L20.1247 35.8198L21.8586 47.9576L19.6056 70.487C19.5449 71.0956 19.9774 71.6426 20.5836 71.7235L37.5836 73.9902C38.1953 74.0711 38.7589 73.6487 38.853 73.039L40 65.5863L41.147 73.039C41.2411 73.6487 41.8047 74.0711 42.4164 73.9902L59.4164 71.7235C60.0246 71.6456 60.4607 71.0977 60.4 70.487L58.1414 47.9576L59.8753 35.8198L62.6667 41.4015V72.8667C62.6667 73.1672 62.7861 73.4556 62.9986 73.6681C63.2111 73.8806 63.4995 74 63.8 74H72.8667C73.1672 74 73.4556 73.8806 73.6681 73.6681C73.8806 73.4556 74 73.1672 74 72.8667V36.6C74 36.4639 73.9757 36.3288 73.9287 36.2013L73.9288 36.2013ZM47.1316 18.1354L48.8554 19.8601L42.5088 34.6608L46.3576 10.0512L49.7302 14.7738L47.3037 16.3908H47.3043C47.0219 16.5795 46.8388 16.8846 46.8054 17.2221C46.772 17.5601 46.8919 17.895 47.1317 18.1353L47.1316 18.1354ZM32.6949 16.3908L30.2684 14.7738L33.6416 10.0512L37.4869 34.6608L31.1402 19.8601L32.8641 18.1354C33.1039 17.895 33.2238 17.5601 33.1904 17.2221C33.157 16.8846 32.9743 16.5795 32.6915 16.3908L32.6949 16.3908ZM43.9887 10.5339H36.0098L35.6561 8.26719H44.3419L43.9887 10.5339ZM43.634 12.8005L39.9993 36.0617L36.3647 12.8005H43.634ZM36.782 71.5966L21.9696 69.6224L24.1331 48.0476C24.1422 47.956 24.1402 47.8644 24.1275 47.7734L21.8608 31.9067C21.8608 31.8773 21.8416 31.8521 21.8345 31.8237H21.8447L19.578 21.6237L17.366 22.1155L19.5456 31.9224L15.1914 40.6299H15.1909C15.111 40.7862 15.0685 40.9588 15.0664 41.1343V71.7344H8.26644V36.8069L14.8079 19.3601L27.5589 14.8607H27.5594C27.5316 14.9963 27.529 15.1359 27.5523 15.272C27.6074 15.5736 27.7825 15.8397 28.0375 16.0102L30.2869 17.5098L28.9983 18.7995V18.799C28.6714 19.1268 28.5763 19.6201 28.758 20.0457L38.8664 43.6268V58.0428L36.782 71.5966ZM71.7327 71.7337H64.9327V41.1337C64.9347 40.9581 64.8957 40.7851 64.8193 40.6272L60.4596 31.9197L62.6392 22.1128L60.4272 21.621L58.1605 31.821H58.1706C58.1641 31.8494 58.1489 31.8742 58.1443 31.904L55.8777 47.7707L55.8772 47.7702C55.8665 47.8618 55.8665 47.9533 55.8772 48.0449L58.0305 69.6197L43.2182 71.5939L41.1331 58.047V43.6258L51.2415 20.0408C51.4231 19.6148 51.328 19.1215 51.0012 18.7942L49.7125 17.5075L51.962 16.0079V16.0084C52.3429 15.7595 52.5327 15.3031 52.4401 14.8579L65.191 19.3583L71.733 36.8052L71.7327 71.7337Z" fill="#007BFB"/>
<path d="M42.2666 46.8003H44.5332V49.067H42.2666V46.8003Z" fill="#007BFB"/>
<path d="M42.2666 53.6003H44.5332V55.867H42.2666V53.6003Z" fill="#007BFB"/>
<path d="M68.3333 67.2002H70.5999V69.4669H68.3333V67.2002Z" fill="#007BFB"/>
<path d="M9.3999 67.2002H11.6666V69.4669H9.3999V67.2002Z" fill="#007BFB"/>
</svg>
