<svg width="80" height="80" viewBox="0 0 80 80" fill="none" xmlns="http://www.w3.org/2000/svg">
<path d="M55.2033 11.1445L55.2015 11.1253V11.1244L55.2006 11.1182C55.1591 10.7115 54.7886 10.2856 54.2783 10.2856H25.1863C24.7559 10.2856 24.3099 10.6249 24.2626 11.1262L18.8752 68.6307C18.8506 68.8905 18.9372 69.149 19.1131 69.3418C19.2886 69.5356 19.5377 69.6454 19.7989 69.6454H32.9974C33.4519 69.6454 33.8389 69.3164 33.9126 68.8682L39.6741 33.8894L47.0397 68.9093C47.1298 69.3383 47.5084 69.6455 47.9473 69.6455H60.2029C60.4654 69.6455 60.7154 69.5339 60.8917 69.3392C61.0676 69.1446 61.1525 68.8834 61.1252 68.6227L55.2033 11.1445ZM54.0426 19.1321L54.5908 24.9635C51.5326 24.9099 49.0097 22.3882 48.6003 19.1321H54.0426ZM53.9207 17.2728C53.8189 17.2728 44.5648 17.2777 44.9799 17.2773V12.1409H53.4345L53.9207 17.2728ZM36.3997 17.2773V12.1409H43.1246V17.2773H36.3997ZM34.5443 12.1409V17.2773C33.4455 17.2768 25.0955 17.2723 25.595 17.2728L26.037 12.1409L34.5443 12.1409ZM25.4419 19.1321H30.8846C30.4752 22.3877 27.9523 24.9108 24.8941 24.9635L25.4419 19.1321ZM48.7004 67.7902L40.4713 28.6631C40.3794 28.2256 39.9637 27.9528 39.5432 27.9265C39.0972 27.9363 38.7208 28.2626 38.648 28.7037L32.2106 67.7897H20.817L24.6557 26.8192H24.7959C28.9158 26.8192 32.3164 23.4475 32.7495 19.1321H46.7354C47.1685 23.4475 50.5691 26.8192 54.6895 26.8192H54.9538L59.1758 67.7897L48.7004 67.7902Z" fill="#007BFB"/>
<path d="M39.7509 13.1309C38.8929 13.1309 38.1853 13.8382 38.1853 14.7173C38.1853 15.5746 38.8929 16.2823 39.7509 16.2823C40.6299 16.2823 41.338 15.575 41.338 14.7173C41.3375 13.8382 40.63 13.1309 39.7509 13.1309Z" fill="#007BFB"/>
</svg>
