<svg width="80" height="80" viewBox="0 0 80 80" fill="none" xmlns="http://www.w3.org/2000/svg">
<path d="M72.9109 31.7951L66.2995 16.3685C66.205 16.1486 66.0412 15.9651 65.8331 15.8466L50.4065 7.03136C50.2402 6.93543 50.0518 6.88525 49.86 6.88576H30.0257C29.8324 6.88477 29.6425 6.93495 29.4748 7.03136L14.0482 15.8466C13.8401 15.9651 13.6768 16.1486 13.5818 16.3685L6.97041 31.7951C6.91285 31.9329 6.88432 32.0804 6.8858 32.2295V67.4904C6.8858 67.5804 6.89662 67.6699 6.91876 67.757L8.02066 72.1646C8.14315 72.6555 8.58391 72.9999 9.0896 72.9999H15.701C16.2067 72.9999 16.6475 72.6555 16.77 72.1646L17.8719 67.757C17.894 67.6699 17.9048 67.5804 17.9048 67.4904V36.8978L20.3398 32.0262L22.3124 67.5528C22.3257 67.7703 22.4025 67.9783 22.5328 68.1525L25.8385 72.5601C26.0466 72.8375 26.3732 73.0008 26.72 73.0008H53.1657C53.5125 73.0008 53.8391 72.8375 54.0472 72.5601L57.3529 68.1525C57.4833 67.9783 57.56 67.7703 57.5733 67.5528L59.5459 32.0262L61.9809 36.8978V67.4904C61.9809 67.5804 61.9917 67.6699 62.0139 67.757L63.1158 72.1646C63.2383 72.6555 63.679 72.9999 64.1847 72.9999H70.7961C71.3018 72.9999 71.7426 72.6555 71.8651 72.1646L72.967 67.757C72.9891 67.6699 72.9999 67.5804 72.9999 67.4904V32.2295C73.0004 32.08 72.9699 31.9324 72.9109 31.7951H72.9109ZM39.9432 36.1555L32.5837 19.802C31.621 17.6705 31.1246 15.358 31.128 13.019V9.08952H32.2299V13.8917C32.2284 15.2346 32.5014 16.5638 33.0322 17.7981L38.9309 31.5624H38.9304C39.1045 31.9673 39.5025 32.2295 39.9432 32.2295C40.384 32.2295 40.782 31.9673 40.9561 31.5624L46.8543 17.7956C47.3845 16.5628 47.6576 15.2346 47.6566 13.8927V9.09053H48.7585V13.02C48.7619 15.359 48.2656 17.6716 47.3028 19.803L39.9432 36.1555ZM45.4527 9.08902V13.8912C45.4542 14.9355 45.2417 15.9696 44.829 16.9293L39.9432 28.3295L35.0574 16.9293C34.6447 15.9695 34.4322 14.9355 34.4337 13.8912V9.08902H45.4527ZM9.95008 70.7956L9.39913 68.5917H15.3917L14.8408 70.7956H9.95008ZM22.3125 27.7899V23.4143H20.1087V27.5617L15.8167 36.1442V36.1447C15.7405 36.2977 15.7011 36.4664 15.7011 36.6371V66.3885H9.08972V32.4549L15.4665 17.5736L28.9236 9.8858V13.0184C28.9211 15.6688 29.4849 18.2897 30.5764 20.7051L38.8407 39.0773V66.3881H24.4568L22.3125 27.7899ZM25.6182 68.5917H38.8411V70.7956H27.2711L25.6182 68.5917ZM52.6155 70.7956H41.0455V68.5917H54.2683L52.6155 70.7956ZM59.7778 27.5607V23.4132H57.574V27.7889L55.4298 66.3869H41.0459V39.0761L49.3102 20.704C50.4017 18.2886 50.9655 15.6677 50.963 13.0172V9.88466L64.4201 17.5724L70.7969 32.4538V66.3873H64.1855V36.6359C64.1874 36.4652 64.1495 36.297 64.0753 36.1435L59.7778 27.5607ZM65.0458 70.7956L64.4949 68.5917H70.4869L69.936 70.7956H65.0458Z" fill="#007BFB"/>
<path d="M37.7395 11.2935H42.1471V13.4973H37.7395V11.2935Z" fill="#007BFB"/>
</svg>
