<svg width="80" height="80" viewBox="0 0 80 80" fill="none" xmlns="http://www.w3.org/2000/svg">
<path d="M52.9978 16.4979V15.1849C52.9978 14.9291 52.915 14.6806 52.7615 14.476L49.4529 10.0649V4.55029H47.0897V9.77323L39.9999 13.8251L32.9101 9.77323V4.55029H30.5469V10.0649L27.2383 14.476C27.0848 14.6806 27.002 14.9291 27.002 15.1849V16.4979C27.0036 18.1491 27.3876 19.7775 28.1245 21.2551L30.4524 25.911L27.0636 36.0814L27.0631 36.0808C27.0151 36.2248 26.9951 36.3762 27.004 36.5276L29.3673 74.3397C29.4063 74.9627 29.9228 75.448 30.5468 75.448H36.455C36.974 75.448 37.4319 75.1099 37.5844 74.614L39.5093 68.3583H41.3313C42.3821 68.3588 43.378 68.8262 44.049 69.6343L48.5392 75.0239C48.8483 75.4016 49.3574 75.5509 49.8216 75.3995C50.2853 75.2481 50.6081 74.8272 50.6345 74.3397L52.9977 36.5276C53.0072 36.3762 52.9872 36.2248 52.9387 36.0808L49.5473 25.9104L51.8752 21.2546V21.2551C52.6121 19.7776 52.9962 18.1491 52.9977 16.4979L52.9978 16.4979ZM45.8701 68.1223C44.7497 66.7729 43.0859 65.9932 41.3314 65.9953H40.2363L45.3812 49.2783L47.8262 70.468L45.8701 68.1223ZM50.6346 16.4979C50.633 17.7819 50.3339 19.048 49.7615 20.1974L47.2079 25.2917C47.0686 25.5718 47.0459 25.8962 47.1451 26.1932L50.6167 36.6106L49.0985 60.9224L47.0812 43.41C47.0174 42.8545 46.5727 42.4199 46.0162 42.3687C45.4597 42.3175 44.9432 42.663 44.7786 43.1969L35.583 73.0846H31.6562L29.3768 36.6108L32.8484 26.1935H32.8489C32.9481 25.8965 32.9254 25.572 32.7861 25.2919L30.2388 20.1977H30.2383C29.6659 19.0483 29.3668 17.7822 29.3652 16.4982V15.5787L32.0487 12.0032L39.4091 16.2106C39.772 16.4184 40.2183 16.4184 40.5812 16.2106L47.9464 12.0027L50.6345 15.5786L50.6346 16.4979Z" fill="#007BFB"/>
</svg>
