<svg width="80" height="80" viewBox="0 0 80 80" fill="none" xmlns="http://www.w3.org/2000/svg">
<path d="M65.9383 36.3892L59.4383 17.9725C59.3401 17.6949 59.1336 17.4696 58.8652 17.3477L49.149 12.9307L46.3569 8.04167C46.163 7.70603 45.8046 7.49904 45.4168 7.5H34.5834C34.1955 7.49904 33.8372 7.70603 33.6432 8.04167L30.8512 12.9307L21.135 17.3477C20.8666 17.4696 20.6601 17.6949 20.5619 17.9725L14.0619 36.3892C14.0213 36.5053 14.0005 36.6272 14 36.75V58.4167C14 58.7039 14.1141 58.9796 14.3173 59.1827C14.5204 59.3859 14.7961 59.5 15.0833 59.5H21.5833C21.8706 59.5 22.1463 59.3859 22.3494 59.1827C22.5525 58.9796 22.6667 58.7039 22.6667 58.4167V41.2356L24.8333 33.6523V71.4167C24.8333 71.7039 24.9475 71.9796 25.1506 72.1827C25.3537 72.3858 25.6294 72.5 25.9167 72.5H54.0833C54.3706 72.5 54.6463 72.3858 54.8494 72.1827C55.0525 71.9796 55.1667 71.7039 55.1667 71.4167V33.6523L57.3333 41.2356V58.4167C57.3333 58.7039 57.4475 58.9796 57.6506 59.1827C57.8537 59.3859 58.1294 59.5 58.4167 59.5H64.9167C65.2039 59.5 65.4796 59.3859 65.6827 59.1827C65.8859 58.9796 66 58.7039 66 58.4167V36.75C65.9995 36.6272 65.9787 36.5053 65.9381 36.3892H65.9383ZM45.6137 11.111L48.308 15.8269L45.8986 17.4326V17.4321C45.6287 17.6125 45.4536 17.9041 45.4217 18.2267C45.3898 18.5498 45.5044 18.87 45.7337 19.0997L47.0975 20.4636L39.3769 27.4816L45.6137 11.111ZM39.9997 19.7594L37.8059 14.0002H42.1935L39.9997 19.7594ZM43.019 11.8336H36.9805L36.1559 9.6669H43.8475L43.019 11.8336ZM34.3858 11.111L38.8405 22.8034L37.9738 25.0784L32.9004 20.4664L34.2643 19.1026C34.4941 18.8733 34.6087 18.5532 34.5767 18.2301C34.5448 17.907 34.3698 17.6154 34.0999 17.4355L31.6914 15.8269L34.3858 11.111ZM26.0669 24.844C25.532 24.7695 25.0237 25.1003 24.8752 25.6197L20.5419 40.7864C20.5143 40.8831 20.5003 40.9827 20.4998 41.0833V57.3333H16.1665V36.9357L22.4498 19.1294L29.1771 16.0724C29.1404 16.4652 29.3203 16.8472 29.6463 17.0692L31.7979 18.5027L30.5652 19.7355V19.735C30.3558 19.9444 30.2411 20.2307 30.2479 20.5267C30.2547 20.8231 30.3828 21.1032 30.6019 21.3029L37.144 27.2491L35.7357 30.9489C35.6893 31.0717 35.6661 31.2028 35.6665 31.3343V70.3343H26.9999V25.9177C26.9999 25.3775 26.6019 24.9204 26.0669 24.845L26.0669 24.844ZM63.8338 57.3328H59.5004V41.0828C59.5004 40.9822 59.4864 40.8826 59.4593 40.7859L55.126 25.6192C54.9785 25.0993 54.4697 24.7676 53.9338 24.842C53.3985 24.917 52.9999 25.3755 53.0004 25.9162V70.3328H37.8338V31.8132L49.3964 21.3049C49.6155 21.1056 49.7432 20.8251 49.7505 20.5292C49.7572 20.2332 49.6426 19.9469 49.4332 19.7375L48.2004 18.5047L50.3521 17.0712H50.3516C50.6781 16.8492 50.8575 16.4676 50.8208 16.0749L57.5481 19.1319L63.8339 36.9357L63.8338 57.3328Z" fill="#007BFB"/>
<path d="M40 35.666H42.1667V37.8327H40V35.666Z" fill="#007BFB"/>
<path d="M40 42.166H42.1667V44.3327H40V42.166Z" fill="#007BFB"/>
<path d="M40 48.666H42.1667V50.8327H40V48.666Z" fill="#007BFB"/>
<path d="M40 55.166H42.1667V57.3327H40V55.166Z" fill="#007BFB"/>
<path d="M40 61.666H42.1667V63.8327H40V61.666Z" fill="#007BFB"/>
</svg>
