<svg width="80" height="80" viewBox="0 0 80 80" fill="none" xmlns="http://www.w3.org/2000/svg">
<path fill-rule="evenodd" clip-rule="evenodd" d="M59.8378 34.1059V16.5116L61.2547 16.8067L67.2177 32.2753L59.8378 34.1059ZM52.6347 58.0762H46.1994V57.1905H52.6347V58.0762ZM53.5204 55.4195H45.3137C44.8413 55.4195 44.4279 55.774 44.4279 56.3052V58.9619C44.4279 59.4342 44.8413 59.8476 45.3137 59.8476H53.5204C54.0516 59.8476 54.4061 59.4342 54.4061 58.9619V56.3052C54.4061 55.774 54.0516 55.4195 53.5204 55.4195ZM33.8004 58.0762H27.3058V57.1905H33.8004V58.0762ZM34.6861 55.4195H26.4205C25.9482 55.4195 25.5348 55.774 25.5348 56.3052V58.9619C25.5348 59.4342 25.9482 59.8476 26.4205 59.8476H34.6861C35.1584 59.8476 35.5718 59.4342 35.5718 58.9619V56.3052C35.5718 55.774 35.1584 55.4195 34.6861 55.4195ZM57.5353 35.3464L55.8821 44.5566V44.8517L57.2402 69.5306L42.6573 69.6489L40.9453 67.5824V38.771L50.8641 14.5058L58.0671 16.1V34.58C57.7721 34.7572 57.5948 35.0523 57.5359 35.3474L57.5353 35.3464ZM39.1147 67.5235L37.3433 69.649L22.701 69.5307L24.1179 44.8518V44.5567L22.4647 35.3465C22.4058 35.1103 22.2875 34.8741 22.0514 34.6969V16.0992L29.2544 14.505L39.1732 38.7702V67.4044C39.1732 67.4634 39.1143 67.4634 39.1143 67.5227L39.1147 67.5235ZM12.7821 32.2767L18.7451 16.8081L20.2804 16.4536V34.1062L12.7822 32.2758L12.7821 32.2767ZM31.557 10.0778L37.9923 13.7975L35.7485 17.1037L30.3757 12.0855L31.5565 10.0779L31.557 10.0778ZM49.6233 12.0853L44.2505 17.1036L42.0067 13.7973L48.442 10.0777L49.6228 12.0852L49.6233 12.0853ZM42.7746 29.6796L42.0072 19.8787V19.8198L42.4795 17.6943L43.3652 18.9341C43.4835 19.1702 43.7197 19.2885 43.9558 19.3475H44.0741C44.3103 19.3475 44.5465 19.2885 44.6648 19.1113L48.5617 15.5099L42.7755 29.6791L42.7746 29.6796ZM37.638 17.5173L38.1103 19.7611V19.8794L37.4018 29.6803L31.6751 15.7466L35.2765 19.1118C35.4537 19.289 35.6899 19.3479 35.926 19.3479H35.985C36.28 19.289 36.5162 19.1707 36.6345 18.9345L37.6381 17.5176L37.638 17.5173ZM40.2947 12.7941C40.1764 12.8531 40.0585 12.9125 39.9996 13.0892C39.9407 12.912 39.8224 12.8531 39.7045 12.7941L34.509 9.78295H45.4907L40.2951 12.7941H40.2947ZM40.4719 18.6981H39.7045L38.996 15.4508L39.9996 14.0339V13.975V14.0339L41.1215 15.6871L40.4719 18.6981ZM40.0585 36.2924L38.8188 33.2224C38.8777 33.1041 38.8777 33.0451 38.8777 32.9273L39.8813 20.4701H40.2946L41.2393 32.9273C41.2393 33.0456 41.2982 33.1045 41.2982 33.2224L40.0585 36.2924ZM69.8745 32.6911L63.2031 15.3916C63.0848 15.0372 62.7308 14.7421 62.3763 14.6242L51.6308 12.2626C51.6308 12.1443 51.5719 11.9675 51.5125 11.8492L49.5643 8.42467C49.3281 8.12958 48.9147 7.95235 48.5607 8.0702C48.5018 8.01127 48.3835 8.01127 48.3246 8.01127H31.616H31.4388C31.0843 7.95234 30.6714 8.12958 30.4352 8.42466L28.487 11.8492C28.428 11.9675 28.3687 12.1443 28.3687 12.2626L17.6232 14.6242C17.2687 14.7425 16.9147 15.0376 16.7964 15.3916L10.125 32.691C10.0066 32.9861 10.0066 33.3406 10.1839 33.6357C10.3022 33.9308 10.5973 34.1669 10.9513 34.2852L20.2799 36.529L21.7557 44.8536L20.2799 70.5953C20.2799 70.9498 20.3982 71.2448 20.6343 71.481C20.8116 71.7172 21.1656 71.8355 21.4611 71.8355L37.8748 72.0127C38.2293 72.0127 38.5833 71.8355 38.7605 71.5993L40.0003 70.1234L41.1811 71.5993C41.4173 71.8355 41.7717 72.0127 42.1258 72.0127L58.5395 71.8355C58.8346 71.8355 59.1301 71.7172 59.3663 71.481C59.6024 71.2448 59.7207 70.9498 59.7207 70.5953L58.2448 44.8536L59.7207 36.529L69.0493 34.2264C69.4038 34.1675 69.6399 33.9313 69.8167 33.6358C69.9939 33.3407 69.9939 32.9862 69.8756 32.6911L69.8745 32.6911Z" fill="#007BFB"/>
</svg>
