<svg width="80" height="80" viewBox="0 0 80 80" fill="none" xmlns="http://www.w3.org/2000/svg">
<path d="M66.3998 23.398V16.9001C66.3998 16.6084 66.2839 16.3284 66.0777 16.1222C65.8714 15.9159 65.5915 15.8 65.2998 15.8H14.6998C14.0923 15.8 13.5998 16.2926 13.5998 16.9001V23.398L7.01938 58.4974C6.96438 58.7901 7.03067 59.0926 7.20255 59.3357C7.37491 59.5793 7.63812 59.7418 7.93277 59.7875L36.5328 64.1875C37.1172 64.2774 37.6686 63.8884 37.7801 63.3075L39.9997 51.4692L42.2193 63.3041C42.3176 63.8242 42.7708 64.2003 43.2997 64.2008C43.3562 64.2008 43.4122 64.1964 43.4681 64.1875L72.0682 59.7875C72.3623 59.7419 72.626 59.5793 72.7979 59.3358C72.9698 59.0927 73.0361 58.7902 72.9811 58.4975L66.3998 23.398ZM66.0379 33.4001H65.2998C63.2585 33.3976 61.301 32.5859 59.8578 31.1421C58.4141 29.6989 57.6023 27.7414 57.5998 25.7001V24.6001H64.3879L66.0379 33.4001ZM64.1998 22.4001H53.1998V18.0001H64.1998V22.4001ZM50.9998 18.0001V25.7001H49.8998V18.0001H50.9998ZM47.6998 18.0001V22.4001H41.0998V18.0001H47.6998ZM41.0998 24.6001H43.2998V36.7001C43.2988 37.3822 43.0872 38.0476 42.6933 38.6049C42.2995 39.1618 41.7426 39.5836 41.0998 39.812L41.0998 24.6001ZM38.8998 22.4001H32.2998V18.0001H38.8998V22.4001ZM30.0998 18.0001V25.7001H28.9998V18.0001H30.0998ZM26.7998 18.0001V22.4001H15.7998V18.0001H26.7998ZM15.6117 24.6001H22.3998V25.7001C22.3973 27.7414 21.5856 29.6989 20.1418 31.1421C18.6986 32.5858 16.7411 33.3976 14.6998 33.4001H13.9617L15.6117 24.6001ZM35.8203 61.8505L9.39137 57.7864L13.5503 35.6003H14.7008C17.3256 35.5974 19.8419 34.5534 21.6981 32.6976C23.5539 30.8413 24.5978 28.3251 24.6008 25.7003V24.6003H26.8008V26.8003C26.8008 27.092 26.9167 27.3719 27.123 27.5782C27.3292 27.7844 27.6091 27.9003 27.9008 27.9003H31.2008C31.4925 27.9003 31.7724 27.7844 31.9787 27.5782C32.1849 27.3719 32.3008 27.092 32.3008 26.8003V24.6003H38.9008V45.3998L35.8203 61.8505ZM44.1911 61.8505L41.1003 45.3995V42.0897C42.3417 41.8343 43.4574 41.1591 44.2589 40.177C45.0603 39.1953 45.4988 37.9671 45.5003 36.6997V24.5997H47.7003V26.7997C47.7003 27.0914 47.8162 27.3713 48.0224 27.5775C48.2287 27.7838 48.5086 27.8997 48.8003 27.8997H52.1003C52.392 27.8997 52.6719 27.7838 52.8782 27.5775C53.0844 27.3713 53.2003 27.0914 53.2003 26.7997V24.5997H55.4003V25.6997C55.4033 28.3245 56.4473 30.8408 58.3031 32.6969C60.1594 34.5527 62.6755 35.5967 65.3003 35.5997H66.4509L70.6098 57.7858L44.1911 61.8505Z" fill="#007BFB"/>
<path d="M42.1998 19.0999H44.3998V21.2998H42.1998V19.0999Z" fill="#007BFB"/>
</svg>
