<svg width="80" height="80" viewBox="0 0 80 80" fill="none" xmlns="http://www.w3.org/2000/svg">
<path d="M40.5032 73L16.9926 63.1706L28.6852 37.1357L27.5662 25.9016L18.8812 52.8911L10 51.4869L18.9788 10.5247L25.9721 7L39.9581 21.6186L54.028 7L61.0212 10.5247L70 51.4869L61.1188 52.8911L52.4475 25.8169L51.3285 37.051L63.0068 63.1706L40.5032 73ZM20.1679 61.8924L40.4758 70.4304L59.8462 61.9067L48.8951 37.5148L50.2936 22.7702L54.0837 23.3179L62.7129 50.2232L67.0906 49.5352L58.9509 12.1396L54.5312 9.92087L39.9999 25.0732L25.4823 9.92087L21.0487 12.1396L12.7972 49.5209L17.1749 50.2089L25.804 23.3036L29.5941 22.7559L30.9927 37.5005L20.1679 61.8924Z" fill="#007BFB"/>
</svg>
