<svg width="80" height="80" viewBox="0 0 80 80" fill="none" xmlns="http://www.w3.org/2000/svg">
<path d="M70.9574 34.2178L66.5287 18.7175C66.4328 18.3794 66.1822 18.1071 65.8531 17.9835L51.0525 12.4344C51.0683 12.2446 51.0347 12.0539 50.9552 11.8809L48.7408 7.45221C48.5525 7.07805 48.169 6.84179 47.7498 6.84229H32.2496C31.8299 6.84229 31.4464 7.07904 31.2586 7.45468L29.0442 11.8833C28.9647 12.0563 28.931 12.2471 28.9469 12.4369L14.1463 17.9836C13.8171 18.1072 13.5666 18.3795 13.4707 18.7176L9.04202 34.2178C9.01336 34.3167 8.99902 34.4185 8.99902 34.5213V67.7362C8.99902 68.0298 9.11567 68.3115 9.32326 68.5191C9.53086 68.7267 9.81259 68.8433 10.1062 68.8433H18.9635C19.2571 68.8433 19.5388 68.7267 19.7464 68.5191C19.954 68.3115 20.0706 68.0298 20.0706 67.7362V39.1296L21.0261 36.2643L22.285 41.3009V67.7362C22.2855 68.2126 22.5904 68.6352 23.0422 68.786L36.3281 73.2146C36.6123 73.309 36.9227 73.2848 37.1882 73.1469C37.4541 73.009 37.6528 72.7693 37.7388 72.4826L39.9995 64.9461L42.2603 72.4826C42.4007 72.9512 42.8317 73.272 43.321 73.272C43.4401 73.272 43.5582 73.2527 43.6709 73.2146L56.9569 68.786C57.4086 68.6352 57.7136 68.2126 57.7141 67.7362V41.3009L58.973 36.2643L59.9284 39.1296V67.7362C59.9284 68.0298 60.0451 68.3115 60.2527 68.5191C60.4602 68.7267 60.742 68.8433 61.0356 68.8433H69.8929C70.1865 68.8433 70.4682 68.7267 70.6758 68.5191C70.8834 68.3115 71 68.0298 71 67.7362V34.5213C71 34.4185 70.9857 34.3167 70.957 34.2178L70.9574 34.2178ZM48.7521 12.4288L45.0619 21.6524L41.5022 18.805L47.5916 10.1073L48.7521 12.4288ZM40.0001 17.0898L37.4814 13.4915H42.5189L40.0001 17.0898ZM45.6244 9.05649L44.0689 11.2773H35.9313L34.3759 9.05649H45.6244ZM32.4093 10.1073L38.4987 18.8049L34.9389 21.6524L31.2537 12.4288L32.4093 10.1073ZM17.8568 66.6295H11.2138V64.4151H17.8568V66.6295ZM35.9459 70.7547L24.5001 66.9385V41.165C24.5001 41.0746 24.4892 40.9846 24.467 40.8971L22.2591 32.0631L21.152 26.555L18.9822 26.989L20.0305 32.2357L17.9091 38.6009C17.873 38.7141 17.8557 38.8322 17.8572 38.9508V62.2012H11.2142V34.6778L15.4471 19.8634L29.7036 14.5184L33.4402 23.8616C33.5702 24.1873 33.847 24.4324 34.186 24.5219C34.5251 24.6114 34.8869 24.5348 35.1607 24.3153L38.8929 21.325V60.9322L35.9459 70.7547ZM55.5331 40.8968C55.5109 40.9843 55.5 41.0742 55.5 41.1647V66.9381L44.0543 70.7543L41.4881 62.2005H42.2141V59.9862H41.107V55.5575H42.2141V53.3432H41.107V48.9145H42.2141V46.7002H41.107V42.2716H42.2141V40.0573H41.107V35.6286H42.2141V33.4143H41.107V28.9856H42.2141V26.7713H41.107V21.324L44.8436 24.3133C45.1174 24.5328 45.4787 24.6094 45.8183 24.5199C46.1574 24.4304 46.4342 24.1853 46.5642 23.8595L50.2964 14.5174L64.5528 19.8624L68.7857 34.6768V62.2002H62.1427V38.9498C62.1427 38.8307 62.124 38.7126 62.0864 38.5999L59.9649 32.2347L61.0133 26.9924L58.8435 26.5496L57.7363 32.0577L55.5331 40.8968ZM68.7862 66.6297H62.1432V64.4154H68.7862V66.6297Z" fill="#007BFB"/>
</svg>
