<svg width="80" height="80" viewBox="0 0 80 80" fill="none" xmlns="http://www.w3.org/2000/svg">
<path d="M73.9999 39.948C73.9933 38.9341 73.5314 37.9773 72.7421 37.3414C73.4221 36.4504 73.6184 35.2811 73.2668 34.2166L67.1467 15.8436V15.8441C67.0258 15.4823 66.7319 15.2055 66.3635 15.1074L50.2002 10.7962V7.13309C50.2002 6.83256 50.0808 6.54416 49.8683 6.33166C49.6558 6.11916 49.3674 5.99976 49.0668 5.99976H30.9334C30.3076 5.99976 29.8001 6.50723 29.8001 7.13309V10.7962L13.6407 15.1029C13.2723 15.201 12.9779 15.4778 12.8574 15.8395L6.73288 34.2203C6.38124 35.2843 6.57755 36.4531 7.25755 37.3435C6.46878 37.979 6.00735 38.9353 5.99976 39.9482V52.4669C6.00279 53.3058 6.318 54.1138 6.88366 54.7336C6.318 55.3534 6.00279 56.1614 5.99976 57.0003V66.067C6.00279 66.7677 6.22186 67.4503 6.62765 68.0215C7.03342 68.5927 7.60566 69.0248 8.26639 69.2586V72.867C8.26639 73.1675 8.3858 73.4559 8.5983 73.6684C8.8108 73.8809 9.0992 74.0003 9.39973 74.0003H16.1998C16.5003 74.0003 16.7887 73.8809 17.0012 73.6684C17.2137 73.4559 17.3331 73.1675 17.3331 72.867V69.2586C17.9939 69.0248 18.5661 68.5927 18.9718 68.0215C19.3776 67.4503 19.5967 66.7678 19.5997 66.067V41.2268L20.1664 37.8132L20.2357 39.0599C20.2833 39.9013 20.6435 40.6946 21.2451 41.2846C20.7179 41.9347 20.4482 42.7569 20.4882 43.5932L20.9916 52.6599C21.0387 53.5018 21.3989 54.2957 22.0015 54.8857C21.4733 55.5353 21.2031 56.3569 21.2431 57.1933L21.7465 66.26C21.788 66.9491 22.0384 67.6089 22.4649 68.1522C22.8915 68.6951 23.4733 69.0948 24.1331 69.2982V72.8672C24.1331 73.1678 24.2525 73.4562 24.465 73.6687C24.6775 73.8812 24.9659 74.0006 25.2664 74.0006H54.7332C55.0337 74.0006 55.3221 73.8812 55.5346 73.6687C55.7471 73.4562 55.8665 73.1678 55.8665 72.8672V69.2982C56.5253 69.0933 57.1061 68.6926 57.5316 68.1492C57.9566 67.6058 58.206 66.9455 58.2465 66.2564L58.7499 57.1897C58.7894 56.3534 58.5192 55.5312 57.9915 54.8811C58.5941 54.2917 58.9543 53.4978 59.0014 52.6564L59.5048 43.5897H59.5043C59.5443 42.7533 59.2751 41.9316 58.7474 41.281C59.3495 40.6911 59.7092 39.8977 59.7573 39.0563L59.8266 37.8097L60.3932 41.2233V66.0673C60.3958 66.7681 60.6154 67.4507 61.0211 68.0219C61.4269 68.5931 61.9992 69.0252 62.6599 69.2589V72.8673C62.6599 73.1679 62.7793 73.4563 62.9918 73.6688C63.2043 73.8813 63.4922 74.0007 63.7932 74.0007H70.5932C70.8938 74.0007 71.1817 73.8813 71.3942 73.6688C71.6072 73.4563 71.7266 73.1679 71.7266 72.8673V69.2589C72.3884 69.0262 72.9621 68.5951 73.369 68.0234C73.7762 67.4521 73.9964 66.7691 73.9999 66.0673V57.0006C73.9969 56.1617 73.6816 55.3537 73.116 54.7339C73.6816 54.1141 73.9969 53.3062 73.9999 52.4672L73.9999 39.948ZM62.6665 41.9005L70.1815 38.8951C70.5306 38.7565 70.9258 38.8 71.2364 39.0105C71.5471 39.2215 71.7333 39.5726 71.7333 39.948V52.4668C71.7333 52.7673 71.6139 53.0557 71.4014 53.2682C71.1889 53.4807 70.9005 53.6002 70.5999 53.6002H62.6666L62.6665 41.9005ZM71.1154 34.9295C71.3051 35.4992 71.0182 36.118 70.4602 36.3407L69.3395 36.794L62.4261 39.5615L60.453 27.7602L65.7706 18.8974L71.1154 34.9295ZM56.7434 52.5305C56.7095 53.1316 56.2116 53.6017 55.61 53.6006H41.1331V42.2673H56.1152C56.4268 42.2668 56.7254 42.3948 56.9399 42.6214C57.1539 42.8476 57.2657 43.1527 57.2485 43.4638L56.7434 52.5305ZM24.3882 53.6006C23.7861 53.6017 23.2888 53.1316 23.2549 52.5305L22.7514 43.4638C22.7342 43.1527 22.846 42.8476 23.0601 42.6214C23.2746 42.3948 23.5731 42.2668 23.8848 42.2673H38.8668V53.6006H24.3882ZM23.6333 40.0006C23.0312 40.0016 22.5339 39.5316 22.5 38.9305L21.9313 28.6672H38.8666V40.0006L23.6333 40.0006ZM31.0815 12.8005H38.8665V26.4005H21.3743L15.6782 16.9078L31.0815 12.8005ZM64.3213 16.9078L58.6252 26.4005H41.133V12.8005H48.918L64.3213 16.9078ZM57.499 38.9308C57.4651 39.5319 56.9672 40.0019 56.3657 40.0009H41.1336V28.6676H58.0689L57.499 38.9308ZM47.9334 10.5339H41.1333V8.26725H47.9334V10.5339ZM32.0666 8.26725H38.8667V10.5339H32.0666V8.26725ZM8.88438 34.9311L14.2293 18.8973L19.547 27.7601L17.5803 39.559L10.6669 36.7915L9.54621 36.3382C8.98814 36.1186 8.69823 35.5018 8.88442 34.9316L8.88438 34.9311ZM8.26661 52.4674V39.9486C8.26661 39.3228 8.77409 38.8153 9.39995 38.8153C9.54466 38.8163 9.68835 38.8441 9.82293 38.8978L17.3333 41.9012V53.6009H9.3999C8.77404 53.6009 8.26656 53.0934 8.26656 52.4675L8.26661 52.4674ZM15.0666 71.7342H10.5333V69.4675H15.0666V71.7342ZM17.3333 66.0675C17.3333 66.368 17.2139 66.6564 17.0014 66.8689C16.7889 67.0814 16.5005 67.2008 16.2 67.2008H9.39995C8.77409 67.2008 8.26661 66.6934 8.26661 66.0675V57.0008C8.26661 56.3749 8.77409 55.8675 9.39995 55.8675H17.3333V66.0675ZM23.509 57.064C23.4913 56.7528 23.6031 56.4477 23.8177 56.2216C24.0322 55.9949 24.3302 55.8669 24.6424 55.8674H38.8667V67.2008H25.1436C24.5415 67.2018 24.0442 66.7318 24.0103 66.1307L23.509 57.064ZM50.2001 69.4675V71.7342H47.9334V69.4675H50.2001ZM45.6668 71.7342H43.4001V69.4675H45.6668V71.7342ZM32.0667 69.4675V71.7342H29.8V69.4675H32.0667ZM34.3334 69.4675H36.6001V71.7342H34.3334V69.4675ZM38.8667 69.4675H41.1334V71.7342H38.8667V69.4675ZM26.4 69.4675H27.5334V71.7342H26.4V69.4675ZM53.6001 71.7342H52.4668V69.4675H53.6001V71.7342ZM55.9867 66.1307C55.9533 66.7318 55.4555 67.2018 54.8534 67.2008H41.1329V55.8674H55.3585C55.6707 55.8669 55.9692 55.9949 56.1833 56.2216C56.3978 56.4477 56.5096 56.7528 56.4919 57.064L55.9867 66.1307ZM69.4663 71.7342H64.933V69.4675H69.4663V71.7342ZM71.733 66.0675C71.733 66.368 71.6136 66.6564 71.4011 66.8689C71.1886 67.0814 70.9002 67.2008 70.5997 67.2008H63.7996C63.1738 67.2008 62.6663 66.6934 62.6663 66.0675V55.8675H70.5997C70.9002 55.8675 71.1886 55.9869 71.4011 56.1994C71.6136 56.4119 71.733 56.7003 71.733 57.0008V66.0675Z" fill="#007BFB"/>
</svg>
