<svg width="80" height="80" viewBox="0 0 80 80" fill="none" xmlns="http://www.w3.org/2000/svg">
<path d="M66.866 65.343L50.1247 34.0938V30.0338L52.1497 22.9353L60.52 20.843V20.8425C60.851 20.7596 61.1262 20.5311 61.2688 20.2213C61.4115 19.9114 61.4059 19.5533 61.2533 19.2484L56.7533 10.2485C56.6342 10.0104 56.4353 9.82206 56.1908 9.7171L48.3158 6.3421C47.7683 6.10706 47.132 6.34009 46.8659 6.87346L45.4761 9.6578C44.9769 10.6648 44.2055 11.5115 43.2498 12.1027C42.2935 12.6933 41.1911 13.0047 40.0671 13.0012H39.932H39.9325C38.8085 13.0047 37.7062 12.6933 36.7499 12.1027C35.7941 11.5116 35.0227 10.6648 34.5235 9.6578L33.1374 6.87346C32.8712 6.3401 32.2349 6.10706 31.6875 6.3421L23.8125 9.7171C23.568 9.82206 23.3686 10.0104 23.25 10.2485L18.75 19.2484C18.5974 19.5533 18.5918 19.9114 18.7345 20.2213C18.8771 20.5311 19.1523 20.7597 19.4833 20.8425L27.8535 22.9348L29.8751 30.0338V34.0938L13.1338 65.3431C12.9625 65.6615 12.9555 66.0427 13.1137 66.3676C13.2719 66.6926 13.5763 66.9216 13.9324 66.9834C16.8402 67.4896 19.7903 67.9004 22.7244 68.2389L22.071 69.9791L22.0705 69.9796C21.959 70.277 21.9781 70.6079 22.1238 70.8902C22.2694 71.1724 22.5276 71.3804 22.8344 71.4622C34.0764 74.4992 45.9233 74.4992 57.1655 71.4622C57.4724 71.3804 57.7305 71.1724 57.8762 70.8902C58.0218 70.6079 58.0409 70.277 57.9294 69.9796L57.2755 68.2379C60.2005 67.9004 63.1501 67.4896 66.0676 66.9823C66.4237 66.9205 66.728 66.6915 66.8862 66.3666C67.0445 66.0416 67.0374 65.6604 66.8662 65.342L66.866 65.343ZM25.0713 11.6209L31.5963 8.8274L32.5144 10.6635C33.199 12.0441 34.2572 13.2063 35.568 14.0169C36.8793 14.8275 38.391 15.2544 39.9328 15.2499H40.0679H40.0674C41.6103 15.2559 43.1236 14.829 44.4363 14.0184C45.7486 13.2078 46.8073 12.0451 47.4924 10.6635L48.4105 8.82736L54.9355 11.6208L58.6235 18.9986L52.0758 20.6364L51.223 17.2277L49.0403 17.7721L50.092 21.9808L48.1518 28.7498H31.849L29.9149 21.9808L30.9666 17.7721L28.7838 17.2277L27.931 20.6364L21.3834 18.9986L25.0713 11.6209ZM32.1251 33.2504V31.0004H47.8751V33.2504H32.1251ZM15.8557 65.0255L31.6751 35.5004H35.003L23.5359 66.0746C20.9785 65.7893 18.4057 65.4428 15.8564 65.0265L15.8557 65.0255ZM24.6172 69.5973L37.404 35.5003H42.5946L55.3819 69.5973C45.282 72.1195 34.7166 72.1195 24.6174 69.5973H24.6172ZM56.4643 66.0737L44.9984 35.4995H48.3251L64.142 65.0246C61.5871 65.4419 59.0122 65.7885 56.4638 66.0727L56.4643 66.0737Z" fill="#007BFB"/>
</svg>
