<svg width="170" height="250" viewBox="0 0 170 250" fill="none" xmlns="http://www.w3.org/2000/svg">
<path fill-rule="evenodd" clip-rule="evenodd" d="M152.437 213.187C168.988 188.421 172.75 157.062 168.236 128.28C163.756 99.5989 150.453 73.1931 130.893 51.5063C119.368 38.7218 105.894 27.6441 91.2237 18.4405C79.3573 11.0442 66.7043 4.88624 53.5384 0C74.0909 25.7029 87.0175 57.1623 90.3346 89.6256C57.813 86.4128 24.0945 104.184 8.94513 132.531C-8.08511 164.425 -0.21974 206.795 27.6168 230.423C47.759 247.525 76.3821 253.515 102.235 248.027C123.13 243.542 140.878 230.456 152.437 213.187Z" fill="#9ECDFF"/>
<path d="M55 167.8L73.8235 187L115 145" stroke="white" stroke-width="11"/>
</svg>
