<svg width="48" height="54" viewBox="0 0 48 54" fill="none" xmlns="http://www.w3.org/2000/svg">
<path d="M43.0104 26.5432C43.1741 25.5839 44.0553 24.8876 44.9533 24.9537L45.1243 24.975C46.116 25.099 46.8382 26.0021 46.6775 27.0091L46.6774 27.0091L46.6759 27.0196C45.9724 31.9426 43.756 36.3754 40.2398 39.8916C35.8053 44.3259 29.9652 46.5435 24.1775 46.5435C22.6487 46.5435 21.1233 46.394 19.5997 46.0652L22.0289 42.7145C27.6105 43.3874 33.3766 41.5838 37.6543 37.3061L37.6543 37.3061C40.5903 34.3699 42.4331 30.6274 43.0104 26.5432Z" fill="#007BFB" stroke="white" stroke-width="1.3"/>
<path d="M42.2421 9.88083L43.3518 10.9904V9.42121V5.86094C43.3518 4.8292 44.1732 4.00773 45.205 4.00773H45.2051C46.2368 4.00773 47.0583 4.8292 47.0583 5.86094V15.4292C47.0583 16.4609 46.2368 17.2824 45.2051 17.2824H35.6368C34.6051 17.2824 33.7836 16.4609 33.7836 15.4292C33.7836 14.3974 34.6051 13.5759 35.6368 13.5759H39.1971H40.7663L39.6567 12.4663L37.6559 10.4655C37.6555 10.4651 37.6552 10.4648 37.6549 10.4645C30.279 3.03229 18.2401 3.03519 10.8117 10.4637L10.8081 10.4673C7.23262 14.0993 5.39148 18.7952 5.28431 23.5575L1.97191 28.1172C0.637585 20.9809 2.69202 13.3568 8.17064 7.87818C17.04 -0.991163 31.3701 -0.991163 40.2395 7.87818L42.2421 9.88083Z" fill="#007BFB" stroke="white" stroke-width="1.3"/>
<path d="M24.1215 11.5732H24.1401C25.1631 11.583 25.9747 12.4008 25.9747 13.4263V21.9934V22.4837L26.4462 22.6184L32.2873 24.287L32.2977 24.2899L32.3082 24.2926C33.2748 24.5343 33.8555 25.5483 33.5663 26.5396L33.5627 26.5518L33.5596 26.5642C33.3585 27.3694 32.6313 27.9074 31.7984 27.9074C31.6719 27.9074 31.5307 27.8758 31.298 27.8178L23.6308 25.651L23.6212 25.6483L23.6116 25.6459C22.8063 25.4448 22.2683 24.7176 22.2683 23.8847V13.4264C22.2683 12.3947 23.0898 11.5732 24.1215 11.5732Z" fill="#007BFB" stroke="white" stroke-width="1.3"/>
<path opacity="0.4" d="M18.3917 34.4369H18.4068C19.1752 34.4472 19.5219 35.2407 19.1024 35.7801L19.0952 35.7893L19.0884 35.7988L7.13058 52.3729C6.55477 53.1471 5.39426 52.6286 5.51773 51.7329L5.51788 51.7317L6.79725 42.3303L6.89763 41.5927H6.15319H1.86965C1.19328 41.5927 0.750202 40.7611 1.17233 40.176C1.17244 40.1759 1.17256 40.1757 1.17268 40.1756L13.1305 23.6571C13.7062 22.8824 14.8671 23.4009 14.7436 24.2968L14.7435 24.2979L13.4641 33.6993L13.3637 34.4369H14.1082H18.3917ZM14.1966 33.1369L15.3875 24.3855L18.3917 33.7869H17.7417H14.7641L14.7522 33.8746L14.1082 33.7869V33.1369H14.1966ZM6.06474 42.8927L4.87382 51.6441L0.645805 39.7949C-0.0774933 40.796 0.645805 42.2427 1.86965 42.2427H5.4972L5.50913 42.155L6.15319 42.2427V42.8927H6.06474Z" fill="#007BFB" stroke="white" stroke-width="1.3"/>
</svg>
